<?xml version="1.0" encoding="utf-8"?>
<!-- Generator: Adobe Illustrator 23.0.0, SVG Export Plug-In . SVG Version: 6.00 Build 0)  -->
<svg version="1.1" id="图层_1" focusable="false" xmlns="http://www.w3.org/2000/svg" xmlns:xlink="http://www.w3.org/1999/xlink"
	 x="0px" y="0px" viewBox="0 0 512 512" style="enable-background:new 0 0 512 512;" xml:space="preserve">
<style type="text/css">
	.st0{fill:#8B3D9B;}
	.st1{fill:#FFFFFF;}
</style>
<g>
	<path class="st0" d="M512,256c0-36.7-22.8-69.5-57.1-82.4c20.1-44.3,0.5-96.4-43.8-116.5c-23.1-10.5-49.6-10.5-72.7,0
		c-17.1-45.5-67.8-68.6-113.3-51.5c-23.8,8.9-42.6,27.7-51.5,51.5C129.3,37,77.2,56.6,57.1,100.9c-10.5,23.1-10.5,49.6,0,72.7
		c-45.5,17.1-68.6,67.8-51.5,113.3c8.9,23.8,27.7,42.6,51.5,51.5c-20.1,44.3-0.5,96.4,43.8,116.5c23.1,10.5,49.6,10.5,72.7,0
		c17.1,45.5,67.8,68.6,113.3,51.5c23.8-8.9,42.6-27.7,51.5-51.5c44.3,20.1,96.4,0.5,116.5-43.8c10.5-23.1,10.5-49.6,0-72.7
		C489.2,325.5,512,292.7,512,256z M280,350.4V368c0,8.8-7.2,16-16,16h-16c-8.8,0-16-7.2-16-16v-17.7c-11.3-1.3-22.2-5.2-31.8-11.5
		c-6.2-4.1-6.8-13.1-1.6-18.4l17.5-17.5c3.7-3.7,9.3-4.2,14.1-2c3.2,1.5,6.7,2.2,10.3,2.2h32.8c4.7,0,8.4-3.8,8.4-8.4
		c0-3.8-2.5-7-6.1-8.1l-50.1-14.3c-22.3-6.4-40-24.7-42.9-47.7c-3.9-30.8,17.9-59,48.7-62.9c0.2,0,0.4-0.1,0.6-0.1V144
		c0-8.8,7.2-16,16-16h16c8.8,0,16,7.2,16,16v17.7c11.3,1.3,22.2,5.2,31.8,11.5c6.2,4.1,6.8,13.1,1.5,18.4l-17.5,17.5
		c-3.7,3.7-9.3,4.2-14.1,2c-3.2-1.5-6.7-2.2-10.3-2.2h-32.8c-4.7,0-8.4,3.8-8.4,8.4c0,3.8,2.5,7,6.1,8.1l50.1,14.3
		c22.3,6.4,40,24.7,42.9,47.7c4,30.8-17.8,59-48.6,63C280.5,350.4,280.2,350.4,280,350.4z"/>
	<path class="st1" d="M280,350.4V368c0,8.8-7.2,16-16,16h-16c-8.8,0-16-7.2-16-16v-17.7c-11.3-1.3-22.2-5.2-31.8-11.5
		c-6.2-4.1-6.8-13.1-1.6-18.4l17.5-17.5c3.7-3.7,9.3-4.2,14.1-2c3.2,1.5,6.7,2.2,10.3,2.2h32.8c4.7,0,8.4-3.8,8.4-8.4
		c0-3.8-2.5-7-6.1-8.1l-50.1-14.3c-22.3-6.4-40-24.7-42.9-47.7c-3.9-30.8,17.9-59,48.7-62.9c0.2,0,0.4-0.1,0.6-0.1V144
		c0-8.8,7.2-16,16-16h16c8.8,0,16,7.2,16,16v17.7c11.3,1.3,22.2,5.2,31.8,11.5c6.2,4.1,6.8,13.1,1.5,18.4l-17.5,17.5
		c-3.7,3.7-9.3,4.2-14.1,2c-3.2-1.5-6.7-2.2-10.3-2.2h-32.8c-4.7,0-8.4,3.8-8.4,8.4c0,3.8,2.5,7,6.1,8.1l50.1,14.3
		c22.3,6.4,40,24.7,42.9,47.7c3.9,30.8-17.9,59-48.7,62.9C280.4,350.3,280.2,350.3,280,350.4L280,350.4z"/>
</g>
</svg>
