<?xml version="1.0" encoding="utf-8"?>
<!-- Generator: Adobe Illustrator 23.0.0, SVG Export Plug-In . SVG Version: 6.00 Build 0)  -->
<svg version="1.1" id="图层_1" focusable="false" xmlns="http://www.w3.org/2000/svg" xmlns:xlink="http://www.w3.org/1999/xlink"
	 x="0px" y="0px" width="21" height="21" viewBox="0 0 20 20" style="enable-background:new 0 0 20 20;" xml:space="preserve">
<style type="text/css">
	.st0{fill:#8B3D9B;}
	.st1{fill:#FFFFFF;}
</style>
<g>
	<path class="st0" d="M20,10c0-1.4-0.9-2.7-2.2-3.2c0.8-1.7,0-3.8-1.7-4.6c-0.9-0.4-1.9-0.4-2.8,0c-0.7-1.8-2.7-2.7-4.4-2
		c-0.9,0.3-1.7,1.1-2,2C5,1.4,3,2.2,2.2,3.9c-0.4,0.9-0.4,1.9,0,2.8c-1.8,0.7-2.7,2.7-2,4.4c0.3,0.9,1.1,1.7,2,2
		c-0.8,1.7,0,3.8,1.7,4.6c0.9,0.4,1.9,0.4,2.8,0c0.7,1.8,2.7,2.7,4.4,2c0.9-0.3,1.7-1.1,2-2c1.7,0.8,3.8,0,4.6-1.7
		c0.4-0.9,0.4-1.9,0-2.8C19.1,12.7,20,11.5,20,10z M10.9,13.7v0.7c0,0.3-0.3,0.6-0.6,0.6H9.7C9.3,15,9,14.7,9,14.4v-0.7
		c-0.4-0.1-0.9-0.2-1.2-0.4c-0.2-0.2-0.3-0.5-0.1-0.7l0.7-0.7c0.1-0.1,0.4-0.2,0.6-0.1c0.1,0.1,0.3,0.1,0.4,0.1h1.3
		c0.2,0,0.3-0.1,0.3-0.3c0-0.1-0.1-0.3-0.2-0.3l-2-0.6c-0.9-0.3-1.6-1-1.7-1.9C7,7.6,7.8,6.5,9,6.3c0,0,0,0,0,0V5.6
		C9,5.3,9.3,5,9.7,5h0.6c0.3,0,0.6,0.3,0.6,0.6v0.7c0.4,0.1,0.9,0.2,1.2,0.4c0.2,0.2,0.3,0.5,0.1,0.7l-0.7,0.7
		c-0.1,0.1-0.4,0.2-0.6,0.1c-0.1-0.1-0.3-0.1-0.4-0.1H9.3C9.1,8.2,9,8.3,9,8.5c0,0.1,0.1,0.3,0.2,0.3l2,0.6c0.9,0.3,1.6,1,1.7,1.9
		C13,12.4,12.2,13.6,10.9,13.7C10.9,13.7,10.9,13.7,10.9,13.7z"/>
	<path class="st1" d="M280-141.6v17.6c0,8.8-7.2,16-16,16h-16c-8.8,0-16-7.2-16-16v-17.7c-11.3-1.3-22.2-5.2-31.8-11.5
		c-6.2-4.1-6.8-13.1-1.6-18.4l17.5-17.5c3.7-3.7,9.3-4.2,14.1-2c3.2,1.5,6.7,2.2,10.3,2.2h32.8c4.7,0,8.4-3.8,8.4-8.4
		c0-3.8-2.5-7-6.1-8.1l-50.1-14.3c-22.3-6.4-40-24.7-42.9-47.7c-3.9-30.8,17.9-59,48.7-62.9c0.2,0,0.4-0.1,0.6-0.1V-348
		c0-8.8,7.2-16,16-16h16c8.8,0,16,7.2,16,16v17.7c11.3,1.3,22.2,5.2,31.8,11.5c6.2,4.1,6.8,13.1,1.5,18.4l-17.5,17.5
		c-3.7,3.7-9.3,4.2-14.1,2c-3.2-1.5-6.7-2.2-10.3-2.2h-32.8c-4.7,0-8.4,3.8-8.4,8.4c0,3.8,2.5,7,6.1,8.1l50.1,14.3
		c22.3,6.4,40,24.7,42.9,47.7c3.9,30.8-17.9,59-48.7,62.9C280.4-141.7,280.2-141.7,280-141.6L280-141.6z"/>
</g>
</svg>
