<?xml version="1.0" standalone="no"?><!DOCTYPE svg PUBLIC "-//W3C//DTD SVG 1.1//EN" "http://www.w3.org/Graphics/SVG/1.1/DTD/svg11.dtd"><svg t="1579600951761" class="icon" viewBox="0 0 1024 1024" version="1.1" xmlns="http://www.w3.org/2000/svg" p-id="4697" xmlns:xlink="http://www.w3.org/1999/xlink" width="200" height="200"><defs><style type="text/css"></style></defs><path d="M610.3 370.42c0 45.27-9.41 32.33-9.41 93.43 0 54.65 56.67 103.04 113.34 90.16 15.46-2.58 30.91-7.73 43.79-23.18 10.3-12.88 12.88-25.76 10.3-41.22-2.58-7.73-12.88-15.46-15.46-7.73-5.15 15.46-12.88 28.34-25.76 36.06-36.06 15.46-74.7-15.46-82.43-51.52-7.73-43.79 18.03-82.43 56.67-100.46 33.49-15.46 69.55-12.88 100.46 2.58 59.25 33.49 82.43 100.46 69.3 161.69 1.22 3.33 2.56 6.1 3.72 9.32 14.16 23.85 22.29 51.69 22.29 81.44 0 88.2-71.51 120.91-159.71 120.91-9.43 0-18.68-0.82-27.59-2.39-3.85 5.8-7.98 11.36-12.44 16.64-31.18 36.97-77.83 60.46-129.99 60.46-52.37 0-99.2-23.67-130.4-60.92-29.42 15.87-63.09 24.86-98.87 24.86-110.01 0-200.12-46.31-208.09-154.28-0.38-5.14-0.57-10.34-0.57-15.57 30.91-10.3 69.55 0 90.16-33.49 5.15-10.3 12.88-30.91-2.58-33.49-48.94-7.73-87.58-48.94-66.98-95.31 23.18-51.52 87.58-74.7 131.38-43.79 18.03 12.88 33.49 33.49 45.11 53.6 2.47 3.77 4.32 5.88 6.17 7.81 43.15 39.83 104.85 55.23 162.53 23.6 51.52-28.34 77.28-95.31 54.1-149.41-18.03-36.06-54.1-64.4-97.89-59.25-23.18 2.58-41.22 12.88-56.67 30.91-15.46 20.61-15.46 43.79-5.15 64.4 2.58 5.15 7.73 2.58 7.73 0 0-18.03 5.15-33.49 15.46-46.37 20.61-20.61 48.94-23.18 74.7-10.3 38.64 23.18 46.37 72.13 23.18 108.19-20.61 28.34-54.1 43.79-87.58 41.22-56.67-5.15-97.89-56.67-97.89-110.77 2.58-46.37 28.34-90.16 72.13-113.34 66.98-36.06 154.72 2.67 186.86 49.72 17.53 25.61 26.08 49.93 26.08 75.79z" fill="#ffffff" p-id="4698"></path></svg>