<?xml version="1.0" encoding="utf-8"?>
<!-- Generator: Adobe Illustrator 23.0.0, SVG Export Plug-In . SVG Version: 6.00 Build 0)  -->
<svg version="1.1" id="图层_1" xmlns="http://www.w3.org/2000/svg" xmlns:xlink="http://www.w3.org/1999/xlink" x="0px" y="0px"
	 viewBox="0 0 100 100" style="enable-background:new 0 0 100 100;" xml:space="preserve">
<style type="text/css">
	.st0{fill:#14284F;}
	.st1{fill:#1E3868;}
</style>
<g id="祥云">
	<ellipse id="SVGID_3_" class="st0" cx="50.1" cy="50.5" rx="48.9" ry="41.1"/>
	<g>
		<path class="st1" d="M96.2,73c-0.2-1-0.7-2-1.4-2.7c2-2.2,2-5.7,0-7.9c2-2.2,2-5.7,0-7.9c2-2.2,2-5.7,0-7.9c2-2.2,2-5.7,0-7.9
			c2-2.2,2-5.7,0-7.9c1.6-1.7,2-4.4,0.9-6.5c-1.1-2.2-3.5-3.5-5.9-3.2c-1.4,0.2-2.8,0.9-3.7,2c-1.1-1.3-2.7-2-4.4-2s-3.3,0.8-4.4,2
			c-1.1-1.3-2.7-2-4.4-2s-3.3,0.8-4.4,2c-1.1-1.3-2.7-2-4.4-2c-1.7,0-3.3,0.8-4.4,2c-1.1-1.3-2.7-2-4.4-2s-3.3,0.8-4.4,2
			c-1.1-1.3-2.7-2-4.4-2s-3.3,0.8-4.4,2c-1.1-1.3-2.7-2-4.4-2s-3.3,0.8-4.4,2c-1.1-1.3-2.7-2-4.4-2s-3.3,0.8-4.4,2
			c-2.1-2.4-5.9-2.7-8.2-0.6c-0.8,0.7-1.4,1.6-1.7,2.6c-3.1,0.6-5.3,3.8-4.7,6.9c0.2,1,0.7,2,1.4,2.7c-2,2.2-2,5.7,0,7.9
			c-2,2.2-2,5.7,0,7.9c-2,2.2-2,5.7,0,7.9c-2,2.2-2,5.7,0,7.9c-2,2.2-2,5.7,0,7.9c-1.6,1.7-2,4.4-0.9,6.5c1.1,2.2,3.5,3.5,5.9,3.2
			c1.4-0.2,2.8-0.9,3.7-2c1.1,1.3,2.7,2,4.4,2s3.3-0.8,4.4-2c1.1,1.3,2.7,2,4.4,2s3.3-0.8,4.4-2c1.1,1.3,2.7,2,4.4,2s3.3-0.8,4.4-2
			c1.1,1.3,2.7,2,4.4,2s3.3-0.8,4.4-2c1.1,1.3,2.7,2,4.4,2s3.3-0.8,4.4-2c1.1,1.3,2.7,2,4.4,2s3.3-0.8,4.4-2c1.1,1.3,2.7,2,4.4,2
			c1.7,0,3.3-0.8,4.4-2c2.1,2.4,5.9,2.7,8.2,0.6c0.8-0.7,1.4-1.6,1.7-2.6C94.7,79.4,96.9,76.1,96.2,73z M95.9,66.5
			c0,1.3-0.5,2.5-1.4,3.4c-0.3-0.2-0.6-0.5-0.9-0.7c1.2-1.3,1.5-3.3,0.7-4.8c-0.9-1.8-3.1-2.7-5-2.1c-1.1,0.4-2,1.2-2.5,2.2
			c-0.4,0-0.8-0.1-1.2,0c0.9-2.5,3.6-4,6.2-3.4C94.2,61.7,95.9,64,95.9,66.5z M82.4,73c-0.6-0.3-1.4-0.1-1.7,0.5
			c-0.3-0.2-0.6-0.4-0.9-0.5c0.9-1.4,3-1.5,4-0.1c-0.3,0.1-0.6,0.3-0.9,0.5C82.7,73.2,82.5,73.1,82.4,73z M82.4,73.7
			c-0.3,0.2-0.5,0.5-0.8,0.7c-0.1-0.1-0.2-0.2-0.3-0.4c-0.1-0.1-0.2-0.2-0.3-0.3C81.3,73.3,82,73.2,82.4,73.7z M83.4,71.9
			c-1.3-1-3.3-0.5-4.1,0.9c-0.3-0.1-0.6-0.2-0.9-0.3c0.6-1.2,1.9-2,3.3-2c1.4,0,2.7,0.8,3.3,2c0,0,0,0,0,0c-0.3,0.1-0.6,0.1-0.9,0.2
			C84,72.4,83.7,72.1,83.4,71.9z M81.4,70c-1.5,0.1-2.8,1.1-3.5,2.4c-0.4,0-0.8-0.1-1.2,0c0.7-1.8,2.3-3.1,4.2-3.4
			c1.8-0.3,3.7,0.4,4.9,1.9c-0.1,0.1-0.2,0.3-0.3,0.4c-0.1,0.2-0.2,0.4-0.3,0.6C84.4,70.6,82.9,69.9,81.4,70z M73.6,73
			c-0.6-0.3-1.4-0.1-1.7,0.5c-0.3-0.2-0.6-0.4-0.9-0.5c0.9-1.4,3-1.5,4-0.1c-0.3,0.1-0.6,0.3-0.9,0.5C73.9,73.2,73.7,73.1,73.6,73z
			 M73.6,73.7c-0.3,0.2-0.5,0.5-0.8,0.7c-0.1-0.1-0.2-0.2-0.3-0.4c-0.1-0.1-0.2-0.2-0.3-0.3C72.5,73.3,73.2,73.2,73.6,73.7z
			 M74.6,71.9c-1.3-1-3.3-0.5-4.1,0.9c-0.3-0.1-0.6-0.2-0.9-0.3c0.6-1.2,1.9-2,3.3-2c1.4,0,2.7,0.8,3.3,2c0,0,0,0,0,0
			c-0.3,0.1-0.6,0.1-0.9,0.2C75.2,72.4,74.9,72.1,74.6,71.9z M72.6,70c-1.5,0.1-2.8,1.1-3.5,2.4c-0.4,0-0.8-0.1-1.2,0
			c0.7-1.8,2.3-3.1,4.2-3.4c1.8-0.3,3.7,0.4,4.9,1.9c-0.2,0.3-0.4,0.7-0.6,1C75.6,70.6,74.1,69.9,72.6,70z M64.7,73
			c-0.6-0.3-1.4-0.1-1.7,0.5c-0.3-0.2-0.6-0.4-0.9-0.5c0.9-1.4,3-1.5,4-0.1c-0.3,0.1-0.6,0.3-0.9,0.5C65.1,73.2,64.9,73.1,64.7,73z
			 M64.8,73.7c-0.3,0.2-0.5,0.5-0.8,0.7c-0.1-0.1-0.2-0.2-0.3-0.4c-0.1-0.1-0.2-0.2-0.3-0.3C63.7,73.3,64.4,73.2,64.8,73.7z
			 M65.8,71.9c-1.3-1-3.3-0.5-4.1,0.9c-0.3-0.1-0.6-0.2-0.9-0.3c0.6-1.2,1.9-2,3.3-2c1.4,0,2.7,0.8,3.3,2c0,0,0,0,0,0
			c-0.3,0.1-0.6,0.1-0.9,0.2C66.4,72.4,66.1,72.1,65.8,71.9z M63.8,70c-1.5,0.1-2.8,1.1-3.5,2.4c-0.4,0-0.8-0.1-1.2,0
			c0.7-1.8,2.3-3.1,4.2-3.4c1.8-0.3,3.7,0.4,4.9,1.9c-0.2,0.3-0.4,0.7-0.6,1C66.8,70.6,65.3,69.9,63.8,70z M55.9,73
			c-0.6-0.3-1.4-0.1-1.7,0.5c-0.3-0.2-0.6-0.4-0.9-0.5c0.9-1.4,3-1.5,4-0.1c-0.3,0.1-0.6,0.3-0.9,0.5C56.3,73.2,56.1,73.1,55.9,73z
			 M56,73.7c-0.3,0.2-0.5,0.5-0.8,0.7c-0.1-0.1-0.2-0.2-0.3-0.4c-0.1-0.1-0.2-0.2-0.3-0.3C54.9,73.3,55.6,73.2,56,73.7z M57,71.9
			c-1.3-1-3.3-0.5-4.1,0.9c-0.3-0.1-0.6-0.2-0.9-0.3c0.6-1.2,1.9-2,3.3-2c1.4,0,2.7,0.8,3.3,2c0,0,0,0,0,0c-0.3,0.1-0.6,0.1-0.9,0.2
			C57.6,72.4,57.3,72.1,57,71.9z M55,70c-1.5,0.1-2.8,1.1-3.5,2.4c-0.4,0-0.8-0.1-1.2,0c0.7-1.8,2.3-3.1,4.2-3.4
			c1.8-0.3,3.7,0.4,4.9,1.9c-0.2,0.3-0.4,0.7-0.6,1C58,70.6,56.5,69.9,55,70z M47.1,73c-0.6-0.3-1.4-0.1-1.7,0.5
			c-0.3-0.2-0.6-0.4-0.9-0.5c0.9-1.4,3-1.5,4-0.1c-0.3,0.1-0.6,0.3-0.9,0.5C47.4,73.2,47.3,73.1,47.1,73z M47.2,73.7
			c-0.3,0.2-0.5,0.5-0.8,0.7c-0.1-0.1-0.2-0.2-0.3-0.4c-0.1-0.1-0.2-0.2-0.3-0.3C46.1,73.3,46.8,73.2,47.2,73.7z M48.2,71.9
			c-1.3-1-3.3-0.5-4.1,0.9c-0.3-0.1-0.6-0.2-0.9-0.3c0.6-1.2,1.9-2,3.3-2c1.4,0,2.7,0.8,3.3,2c0,0,0,0,0,0c-0.3,0.1-0.6,0.1-0.9,0.2
			C48.7,72.4,48.5,72.1,48.2,71.9z M46.2,70c-1.5,0.1-2.8,1.1-3.5,2.4c-0.4,0-0.8-0.1-1.2,0c0.7-1.8,2.3-3.1,4.2-3.4
			c1.8-0.3,3.7,0.4,4.9,1.9c-0.2,0.3-0.4,0.7-0.6,1C49.2,70.6,47.7,69.9,46.2,70z M38.3,73c-0.6-0.3-1.4-0.1-1.7,0.5
			c-0.3-0.2-0.6-0.4-0.9-0.5c0.9-1.4,3-1.5,4-0.1c-0.3,0.1-0.6,0.3-0.9,0.5C38.6,73.2,38.5,73.1,38.3,73z M38.4,73.7
			c-0.2,0.2-0.4,0.4-0.6,0.6c-0.1,0.1-0.1,0.1-0.2,0.2c-0.2-0.2-0.4-0.4-0.6-0.6C37.3,73.3,38,73.2,38.4,73.7z M39.4,71.9
			c-1.3-1-3.3-0.5-4.1,0.9c-0.3-0.1-0.6-0.2-0.9-0.3c0.6-1.2,1.9-2,3.3-2c1.4,0,2.7,0.8,3.3,2c0,0,0,0,0,0c-0.3,0.1-0.6,0.1-0.9,0.2
			C39.9,72.4,39.7,72.1,39.4,71.9z M37.4,70c-1.5,0.1-2.8,1.1-3.5,2.4c-0.2,0-0.5,0-0.7,0c-0.2,0-0.3,0-0.5,0
			c0.7-1.8,2.3-3.1,4.2-3.4c1.8-0.3,3.7,0.4,4.9,1.9c-0.2,0.3-0.4,0.7-0.6,1C40.4,70.6,38.9,69.9,37.4,70z M29.5,73
			c-0.6-0.3-1.4-0.1-1.7,0.5c-0.3-0.2-0.6-0.4-0.9-0.5c0.9-1.4,3-1.5,4-0.1c-0.3,0.1-0.6,0.3-0.9,0.5C29.8,73.2,29.7,73.1,29.5,73z
			 M29.6,73.7c-0.3,0.2-0.5,0.5-0.8,0.7c-0.1-0.1-0.2-0.2-0.3-0.4c-0.1-0.1-0.2-0.2-0.3-0.3C28.5,73.3,29.2,73.2,29.6,73.7z
			 M30.5,71.9c-1.3-1-3.3-0.5-4.1,0.9c-0.3-0.1-0.6-0.2-0.9-0.3c0.6-1.2,1.9-2,3.3-2c1.4,0,2.7,0.8,3.3,2c0,0,0,0,0,0
			c-0.3,0.1-0.6,0.1-0.9,0.2C31.1,72.4,30.9,72.1,30.5,71.9z M28.6,70c-1.5,0.1-2.8,1.1-3.5,2.4c-0.2,0-0.5,0-0.7,0
			c-0.2,0-0.3,0-0.5,0c0.7-1.8,2.3-3.1,4.1-3.4c1.8-0.3,3.8,0.4,4.9,1.9c-0.2,0.3-0.4,0.7-0.6,1C31.6,70.6,30.1,69.9,28.6,70z
			 M20.7,73c-0.6-0.3-1.4-0.1-1.7,0.5c-0.3-0.2-0.6-0.4-0.9-0.5c0.9-1.4,3-1.5,4-0.1c-0.3,0.1-0.6,0.3-0.9,0.5
			C21,73.2,20.9,73.1,20.7,73z M20.7,73.7c-0.3,0.2-0.5,0.5-0.8,0.7c-0.1-0.1-0.2-0.2-0.3-0.4c-0.1-0.1-0.2-0.2-0.3-0.3
			C19.6,73.3,20.4,73.2,20.7,73.7z M21.7,71.9c-1.3-1-3.3-0.5-4.1,0.9c-0.3-0.1-0.6-0.2-0.9-0.3c0.6-1.2,1.9-2,3.3-2
			c1.4,0,2.7,0.8,3.3,2c0,0,0,0,0,0c-0.3,0.1-0.6,0.1-0.9,0.2C22.3,72.4,22,72.1,21.7,71.9z M19.8,70c-1.5,0.1-2.9,1.1-3.5,2.4
			c-0.2,0-0.5,0-0.7,0c-0.2,0-0.3,0-0.5,0c0.7-1.8,2.3-3.1,4.1-3.4c1.8-0.3,3.8,0.4,4.9,1.9c-0.2,0.3-0.4,0.7-0.6,1
			C22.8,70.6,21.3,69.9,19.8,70z M12.8,71c0.2,0.7,0.6,1.2,1.1,1.6c-0.3,0.1-0.6,0.2-0.9,0.4c-1.6-1.5-1.5-4.2,0.2-5.6
			c1.8-1.5,4.6-0.9,5.7,1.1c0,0,0,0,0,0c-0.3,0.1-0.6,0.1-0.9,0.3c-0.8-1.3-2.7-1.8-4-0.9C13,68.6,12.5,69.8,12.8,71z M13.2,70.3
			c0-1,0.6-1.9,1.5-2.2c1-0.4,2.2,0,2.8,0.9c-0.3,0.2-0.6,0.3-0.9,0.5c-0.5-0.8-1.8-0.7-2.2,0.1c-0.4,0.7-0.1,1.5,0.6,1.8
			c-0.2,0.3-0.3,0.6-0.4,1C13.8,72.1,13.2,71.2,13.2,70.3z M14.8,69.9c0.3-0.5,1.1-0.6,1.4,0c0,0-0.1,0-0.1,0.1
			c-0.4,0.3-0.7,0.7-1,1.1C14.8,70.9,14.6,70.3,14.8,69.9z M12.8,63.1c0.2,0.7,0.6,1.3,1.1,1.7c-0.3,0.1-0.6,0.2-0.9,0.4
			c-1.6-1.5-1.5-4.2,0.2-5.6c1.8-1.5,4.6-0.9,5.7,1.1c0,0,0,0,0,0c-0.3,0.1-0.6,0.1-0.9,0.3c-0.8-1.3-2.6-1.8-4-0.9
			C13,60.7,12.5,61.9,12.8,63.1z M13.2,62.4c0-1,0.6-1.8,1.5-2.2c1-0.4,2.3,0,2.9,0.9c-0.3,0.2-0.6,0.3-0.9,0.5
			c-0.5-0.8-1.8-0.7-2.2,0.1c-0.4,0.7-0.1,1.5,0.6,1.8c-0.2,0.3-0.3,0.6-0.4,1C13.8,64.2,13.2,63.4,13.2,62.4z M14.8,62
			c0.3-0.5,1.1-0.6,1.4,0c0,0-0.1,0-0.1,0.1c-0.4,0.3-0.7,0.7-1,1.1C14.8,63,14.6,62.4,14.8,62z M19.3,61.1c1.8-0.3,3.7,0.4,4.9,1.9
			c-0.2,0.3-0.4,0.7-0.6,1c-0.8-1.3-2.3-2-3.8-1.9c-1.5,0.1-2.9,1.1-3.5,2.4c-0.2,0-0.5,0-0.7,0c-0.2,0-0.3,0-0.5,0
			C15.8,62.7,17.4,61.4,19.3,61.1z M12.8,55.2c0.2,0.7,0.6,1.2,1.1,1.6c-0.3,0.1-0.6,0.2-0.9,0.4c-1.6-1.5-1.5-4.2,0.2-5.6
			c1.8-1.5,4.6-0.9,5.7,1.1c0,0,0,0,0,0c-0.3,0.1-0.6,0.1-0.9,0.3c-0.8-1.3-2.7-1.8-4-0.9C13,52.8,12.5,54.1,12.8,55.2z M13.2,54.5
			c0-1,0.6-1.8,1.5-2.2c1-0.4,2.3,0,2.9,0.9c-0.3,0.2-0.6,0.3-0.9,0.5c-0.5-0.8-1.8-0.7-2.2,0.1c-0.4,0.7-0.1,1.5,0.6,1.8
			c-0.2,0.3-0.3,0.6-0.4,1C13.8,56.3,13.2,55.5,13.2,54.5z M14.8,54.1c0.3-0.5,1.1-0.6,1.4,0c0,0-0.1,0-0.1,0.1
			c-0.4,0.3-0.7,0.7-1,1.1C14.8,55.1,14.6,54.5,14.8,54.1z M19.3,53.2c1.8-0.3,3.7,0.4,4.9,1.9c-0.2,0.3-0.4,0.7-0.6,1
			c-0.8-1.3-2.3-2-3.8-1.9c-1.5,0.1-2.9,1.1-3.5,2.4c-0.2,0-0.5,0-0.7,0c-0.2,0-0.3,0-0.5,0C15.8,54.8,17.4,53.5,19.3,53.2z
			 M12.8,47.3c0.2,0.7,0.6,1.2,1.1,1.6c-0.3,0.1-0.6,0.2-0.9,0.4c-1.6-1.5-1.5-4.2,0.2-5.6c1.8-1.5,4.6-0.9,5.7,1.1c0,0,0,0,0,0
			C18.6,45,18.3,45,18,45.1c-0.8-1.3-2.7-1.8-4-0.9C13,44.9,12.5,46.2,12.8,47.3z M13.2,46.6c0-1,0.6-1.9,1.5-2.2
			c1-0.4,2.2,0,2.8,0.9c-0.3,0.2-0.6,0.3-0.9,0.5c-0.5-0.8-1.8-0.7-2.2,0.1c-0.4,0.7-0.1,1.5,0.6,1.8c-0.2,0.3-0.3,0.6-0.4,1
			C13.8,48.4,13.2,47.6,13.2,46.6z M14.8,46.2c0.3-0.5,1.1-0.6,1.4,0c0,0-0.1,0-0.1,0.1c-0.4,0.3-0.7,0.7-1,1.1
			C14.8,47.2,14.6,46.6,14.8,46.2z M19.3,45.3c1.8-0.3,3.8,0.4,4.9,1.9c-0.2,0.3-0.4,0.7-0.6,1c-0.8-1.3-2.3-2-3.8-1.9
			c-1.5,0.1-2.9,1.1-3.5,2.4c-0.2,0-0.5,0-0.7,0c-0.2,0-0.3,0-0.5,0C15.8,47,17.4,45.6,19.3,45.3z M12.8,39.4
			c0.2,0.7,0.6,1.3,1.1,1.7c-0.3,0.1-0.6,0.2-0.9,0.4c-1.6-1.5-1.5-4.2,0.2-5.6c1.8-1.5,4.6-0.9,5.7,1.1c0,0,0,0,0,0
			c-0.3,0.1-0.6,0.1-0.9,0.3c-0.8-1.3-2.6-1.8-4-0.9C13,37,12.5,38.3,12.8,39.4z M13.2,38.8c0-1,0.6-1.8,1.5-2.2
			c1-0.4,2.3,0,2.9,0.9c-0.3,0.2-0.6,0.3-0.9,0.5c-0.5-0.8-1.8-0.7-2.2,0.1c-0.4,0.7-0.1,1.5,0.6,1.8c-0.2,0.3-0.3,0.6-0.4,1
			C13.8,40.5,13.2,39.7,13.2,38.8z M14.8,38.3c0.3-0.5,1.1-0.6,1.4,0c0,0-0.1,0-0.1,0.1c-0.4,0.3-0.7,0.7-1,1.1
			C14.8,39.3,14.6,38.8,14.8,38.3z M19.3,37.4c1.8-0.3,3.7,0.4,4.9,1.9c-0.2,0.3-0.4,0.7-0.6,1c-0.8-1.3-2.3-2-3.8-1.9
			c-1.5,0.1-2.9,1.1-3.5,2.4c-0.2,0-0.5,0-0.7,0c-0.2,0-0.3,0-0.5,0C15.8,39.1,17.4,37.7,19.3,37.4z M12.8,31.6
			c0.2,0.7,0.6,1.2,1.1,1.6c-0.3,0.1-0.6,0.2-0.9,0.4c-1.2-1.1-1.5-3-0.7-4.5c0.8-1.5,2.5-2.3,4.2-1.9c1,0.3,1.9,0.9,2.4,1.9
			c0,0,0,0,0,0c-0.3,0.1-0.6,0.1-0.9,0.3c-0.8-1.4-2.8-1.8-4.1-0.8C13,29.2,12.6,30.5,12.8,31.6z M13.2,30.9c0-0.9,0.6-1.8,1.4-2.2
			c1-0.5,2.3-0.1,2.9,0.9c-0.3,0.2-0.6,0.3-0.9,0.5c-0.5-0.8-1.8-0.7-2.2,0.1c-0.4,0.7-0.1,1.5,0.6,1.8c-0.2,0.3-0.3,0.6-0.4,1
			C13.8,32.6,13.2,31.8,13.2,30.9z M14.8,30.5c0.3-0.5,1.1-0.6,1.4,0c0,0-0.1,0-0.1,0.1c-0.4,0.3-0.7,0.7-1,1.1
			C14.8,31.4,14.6,30.9,14.8,30.5z M19.3,29.5c1.8-0.3,3.8,0.4,4.9,1.9c-0.2,0.3-0.4,0.7-0.6,1c-0.8-1.3-2.3-2-3.8-1.9
			c-1.5,0.1-2.9,1.1-3.5,2.4c-0.2,0-0.5,0-0.7,0c-0.2,0-0.3,0-0.5,0C15.8,31.2,17.4,29.9,19.3,29.5z M20.1,24.5c0.8,0,1.5,0.4,2,1
			c-0.3,0.1-0.6,0.3-0.9,0.5c-0.6-0.7-1.7-0.7-2.2,0.1c-0.3-0.2-0.6-0.4-0.9-0.5C18.5,25,19.2,24.5,20.1,24.5z M17.6,25.5
			c-0.3-0.1-0.6-0.2-0.9-0.3c0.6-1.2,1.9-2,3.3-2c1.4,0,2.7,0.8,3.3,2c0,0,0,0,0,0c-0.3,0.1-0.6,0.1-0.9,0.2
			C21.4,23.6,18.7,23.6,17.6,25.5z M20.1,26.1c0.3,0,0.5,0.1,0.7,0.3c-0.3,0.2-0.5,0.5-0.8,0.7c-0.2-0.2-0.4-0.4-0.6-0.6
			C19.5,26.2,19.8,26.1,20.1,26.1z M24,25.6c1.7-0.1,3.4,0.6,4.5,1.9c-0.2,0.3-0.4,0.7-0.6,1c-0.8-1.3-2.3-2-3.8-1.9
			c-1.5,0.1-2.8,1-3.5,2.4c-0.4,0-0.8,0-1.2,0c0.1-0.4,0.3-0.7,0.5-1.1C20.8,26.6,22.4,25.7,24,25.6z M91.6,26
			c-0.6-0.6-1.6-0.6-2.1,0.2c-0.3-0.2-0.6-0.4-0.9-0.5c0.8-1.3,2.8-1.5,3.8-0.3c1,1.2,0.6,3-0.8,3.7c-0.1-0.3-0.2-0.6-0.4-0.9
			C91.9,27.7,92.1,26.7,91.6,26z M90.9,27.7c-0.3-0.4-0.6-0.8-1-1.2c0.3-0.5,1-0.6,1.4-0.2C91.6,26.7,91.4,27.5,90.9,27.7z
			 M93.4,26.9c0-1.3-0.9-2.4-2.1-2.8c-1.2-0.3-2.6,0.2-3.2,1.3c-0.3-0.1-0.6-0.2-0.9-0.3c0.8-1.5,2.5-2.3,4.2-1.9
			c1.6,0.4,2.8,1.9,2.9,3.5c0,1-0.4,2.1-1.2,2.8c-0.3-0.1-0.6-0.3-0.9-0.4C93,28.7,93.4,27.9,93.4,26.9z M89.3,26.7
			c0.8,0.6,1.3,1.4,1.7,2.3c-0.1,0-0.3,0-0.5,0c-0.2,0-0.5,0-0.7,0c-0.7-1.4-2.2-2.4-3.8-2.4c-1.6,0-3.1,0.9-3.8,2.4
			c-0.4,0-0.8,0-1.2,0c0.6-1.6,1.9-2.8,3.5-3.3C86.2,25.3,88,25.7,89.3,26.7z M91.9,34.8c0-1.3-1.7-1.8-2.5-0.7
			c-0.3-0.2-0.6-0.4-0.9-0.5c0.9-1.5,3.2-1.5,4.1,0.1c0.6,1.2,0.2,2.7-1.1,3.3c-0.1-0.3-0.2-0.6-0.4-0.9
			C91.6,35.8,91.9,35.3,91.9,34.8z M90.9,35.6c-0.2-0.3-0.5-0.6-0.8-0.9c-0.1-0.1-0.2-0.2-0.3-0.3c0.3-0.6,1.2-0.6,1.5,0
			C91.5,34.8,91.4,35.4,90.9,35.6z M93.3,34c-0.4-1.4-1.7-2.3-3.1-2.1c-0.9,0.1-1.6,0.6-2.1,1.4c-0.3-0.1-0.6-0.2-0.9-0.3
			c0.2-0.4,0.5-0.8,0.9-1.1c1.3-1.1,3.3-1.2,4.7-0.1c1.1,0.8,1.6,2.3,1.4,3.6c-0.1,0.8-0.5,1.5-1.1,2c-0.3-0.1-0.6-0.3-0.9-0.4
			C93.2,36.4,93.6,35.2,93.3,34z M91,36.9c-0.4,0-0.8,0-1.2,0c-0.7-1.5-2.2-2.4-3.8-2.4c-1.6,0-3,0.9-3.7,2.4c-0.4,0-0.8,0-1.2,0
			c0.8-2.2,3-3.6,5.3-3.5C88.4,33.6,90.3,34.9,91,36.9z M91.9,42.7c0-1.3-1.7-1.8-2.5-0.7c-0.3-0.2-0.6-0.4-0.9-0.5
			c0.9-1.5,3.2-1.5,4.1,0.1c0.6,1.2,0.2,2.7-1.1,3.3c-0.1-0.3-0.2-0.6-0.4-0.9C91.6,43.7,91.9,43.2,91.9,42.7z M90.9,43.4
			c-0.2-0.3-0.5-0.6-0.8-0.9c-0.1-0.1-0.2-0.2-0.3-0.3c0.3-0.6,1.2-0.6,1.5,0C91.5,42.7,91.4,43.3,90.9,43.4z M93.3,41.9
			c-0.3-1.3-1.6-2.2-3-2.1c-0.9,0.1-1.7,0.6-2.2,1.4c-0.3-0.1-0.6-0.2-0.9-0.3c0.2-0.4,0.5-0.8,0.9-1.1c1.3-1.1,3.3-1.2,4.6-0.1
			c1.1,0.8,1.7,2.3,1.4,3.7c-0.1,0.8-0.5,1.5-1.1,2c-0.3-0.1-0.6-0.3-0.9-0.4C93.2,44.3,93.6,43.1,93.3,41.9z M91,44.8
			c-0.4,0-0.8,0-1.2,0c-0.7-1.4-2.2-2.4-3.7-2.4c-1.6,0-3.1,0.9-3.8,2.4c-0.4,0-0.8,0-1.2,0c0.8-2.2,3-3.6,5.3-3.5
			C88.4,41.5,90.3,42.8,91,44.8z M91.9,50.6c0-1.3-1.7-1.8-2.5-0.7c-0.3-0.2-0.6-0.4-0.9-0.5c0.9-1.5,3.2-1.5,4.1,0.1
			c0.6,1.2,0.2,2.7-1.1,3.3c-0.1-0.3-0.2-0.6-0.4-0.9C91.6,51.5,91.9,51.1,91.9,50.6z M90.9,51.3c-0.2-0.3-0.5-0.6-0.8-0.9
			c-0.1-0.1-0.2-0.2-0.3-0.3c0.3-0.6,1.1-0.6,1.4,0C91.5,50.6,91.4,51.1,90.9,51.3z M93.3,49.8c-0.4-1.3-1.7-2.2-3.1-2.1
			c-0.9,0.1-1.7,0.6-2.1,1.4c-0.3-0.1-0.6-0.2-0.9-0.3c0.2-0.4,0.5-0.8,0.9-1.1c1.3-1.1,3.3-1.2,4.6-0.1c1.1,0.8,1.7,2.3,1.4,3.7
			c-0.1,0.8-0.5,1.5-1.1,2c-0.3-0.1-0.6-0.3-0.9-0.4C93.2,52.2,93.6,50.9,93.3,49.8z M91,52.7c-0.4,0-0.8,0-1.2,0
			c-0.7-1.5-2.2-2.4-3.8-2.4c-1.6,0-3,0.9-3.7,2.4c-0.4,0-0.8,0-1.2,0c0.8-2.2,3-3.6,5.3-3.5C88.4,49.3,90.3,50.7,91,52.7z
			 M91.9,58.4c0-1.3-1.7-1.8-2.5-0.7c-0.3-0.2-0.6-0.4-0.9-0.5c0.9-1.5,3.2-1.5,4.1,0.1c0.6,1.2,0.2,2.7-1.1,3.3
			c-0.1-0.3-0.2-0.6-0.4-0.9C91.6,59.4,91.9,59,91.9,58.4z M90.9,59.2c-0.2-0.3-0.5-0.6-0.8-0.9c-0.1-0.1-0.2-0.2-0.3-0.3
			c0.3-0.6,1.2-0.6,1.5,0C91.5,58.5,91.4,59,90.9,59.2z M93.3,57.7c-0.4-1.4-1.7-2.3-3.1-2.1c-0.9,0.1-1.6,0.6-2.1,1.4
			c-0.3-0.1-0.6-0.2-0.9-0.3c0.2-0.4,0.5-0.8,0.9-1.1c1.3-1.1,3.3-1.2,4.7-0.1c1.1,0.8,1.6,2.3,1.4,3.6c-0.1,0.8-0.5,1.5-1.1,2
			c-0.3-0.1-0.6-0.3-0.9-0.4C93.2,60.1,93.6,58.8,93.3,57.7z M91,60.6c-0.4,0-0.8,0-1.2,0c-0.7-1.5-2.2-2.4-3.8-2.4
			c-1.6,0-3,0.9-3.7,2.4c-0.4,0-0.8,0-1.2,0c0.8-2.2,3-3.6,5.3-3.5C88.4,57.2,90.3,58.6,91,60.6z M76.2,69.4
			c-0.3-0.2-0.6-0.4-0.9-0.5c1-1.3,3-1.3,3.9,0.1c0,0,0,0,0,0c-0.3,0.1-0.6,0.3-0.9,0.5C77.9,68.8,76.8,68.8,76.2,69.4z M78,69.8
			C77.9,69.9,77.9,69.9,78,69.8c-0.3,0.2-0.4,0.4-0.6,0.6c-0.2-0.3-0.5-0.5-0.7-0.7C77,69.3,77.7,69.4,78,69.8z M78.9,68
			c-1.3-0.9-3.2-0.6-4,0.8c-0.3-0.1-0.6-0.2-0.9-0.2c0.6-1.2,1.9-1.9,3.2-1.9c1.4,0,2.7,0.8,3.3,2c0,0,0,0,0,0
			c-0.3,0.1-0.6,0.1-0.9,0.3C79.5,68.5,79.2,68.2,78.9,68z M77,66.1c-1.5,0.1-2.9,1-3.6,2.4c-0.4,0-0.8,0-1.2,0
			c0.8-2.2,3-3.6,5.3-3.5c1.5,0.1,2.9,0.8,3.8,1.9c-0.2,0.3-0.4,0.7-0.6,1C79.9,66.7,78.5,66,77,66.1z M67.4,69.4
			c-0.3-0.2-0.6-0.4-0.9-0.5c1-1.3,3-1.3,3.9,0.1c0,0,0,0,0,0c-0.3,0.1-0.6,0.3-0.9,0.5C69,68.8,68,68.8,67.4,69.4z M69.2,69.8
			C69.1,69.9,69.1,69.9,69.2,69.8c-0.3,0.2-0.4,0.4-0.6,0.6c-0.2-0.3-0.5-0.5-0.7-0.7C68.2,69.3,68.9,69.4,69.2,69.8z M70.1,68
			c-1.3-0.9-3.2-0.6-4,0.8c-0.3-0.1-0.6-0.2-0.9-0.2c0.6-1.2,1.9-1.9,3.2-1.9c1.4,0,2.7,0.8,3.3,2c0,0,0,0,0,0
			c-0.3,0.1-0.6,0.1-0.9,0.3C70.7,68.5,70.4,68.2,70.1,68z M68.2,66.1c-1.5,0.1-2.9,1-3.6,2.4c-0.2,0-0.3,0-0.5,0
			c-0.2,0-0.5,0-0.7,0c0.7-1.8,2.3-3.1,4.2-3.4c1.8-0.3,3.7,0.4,4.9,1.9c-0.2,0.3-0.4,0.7-0.6,1C71.1,66.7,69.7,66,68.2,66.1z
			 M58.6,69.4c-0.3-0.2-0.6-0.4-0.9-0.5c1-1.3,3-1.3,3.9,0.1c0,0,0,0,0,0c-0.3,0.1-0.6,0.3-0.9,0.5C60.2,68.8,59.2,68.8,58.6,69.4z
			 M60.3,69.8C60.3,69.9,60.3,69.9,60.3,69.8c-0.3,0.2-0.4,0.4-0.6,0.6c-0.2-0.3-0.5-0.5-0.7-0.7C59.4,69.3,60,69.4,60.3,69.8z
			 M61.3,68c-1.3-0.9-3.2-0.6-4,0.8c-0.3-0.1-0.6-0.2-0.9-0.2c0.6-1.2,1.9-1.9,3.2-1.9c1.4,0,2.7,0.8,3.3,2c0,0,0,0,0,0
			c-0.3,0.1-0.6,0.1-0.9,0.3C61.9,68.5,61.6,68.2,61.3,68z M59.4,66.1c-1.5,0.1-2.9,1-3.6,2.4c-0.2,0-0.3,0-0.5,0
			c-0.2,0-0.5,0-0.7,0c0.7-1.8,2.3-3.1,4.2-3.4c1.8-0.3,3.7,0.4,4.9,1.9c-0.2,0.3-0.4,0.7-0.6,1C62.3,66.7,60.9,66,59.4,66.1z
			 M49.8,69.4c-0.3-0.2-0.6-0.4-0.9-0.5c1-1.3,3-1.3,3.9,0.1c0,0,0,0,0,0c-0.3,0.1-0.6,0.3-0.9,0.5C51.4,68.8,50.4,68.8,49.8,69.4z
			 M51.5,69.8C51.5,69.9,51.5,69.9,51.5,69.8c-0.3,0.2-0.4,0.4-0.6,0.6c-0.2-0.3-0.5-0.5-0.7-0.7C50.6,69.3,51.2,69.4,51.5,69.8z
			 M52.5,68c-1.3-0.9-3.2-0.6-4,0.8c-0.3-0.1-0.6-0.2-0.9-0.2c0.6-1.2,1.9-1.9,3.2-1.9c1.4,0,2.7,0.8,3.3,2c0,0,0,0,0,0
			c-0.3,0.1-0.6,0.1-0.9,0.3C53,68.5,52.8,68.2,52.5,68z M50.6,66.1c-1.5,0.1-2.9,1-3.6,2.4c-0.2,0-0.3,0-0.5,0c-0.2,0-0.5,0-0.7,0
			c0.7-1.8,2.3-3.1,4.2-3.4c1.8-0.3,3.7,0.4,4.9,1.9c-0.2,0.3-0.4,0.7-0.6,1C53.5,66.7,52.1,66,50.6,66.1z M41,69.4
			c-0.3-0.2-0.6-0.4-0.9-0.5c1-1.3,3-1.3,3.9,0.1c0,0,0,0,0,0c-0.3,0.1-0.6,0.3-0.9,0.5C42.6,68.8,41.5,68.8,41,69.4z M42.7,69.8
			C42.7,69.9,42.7,69.9,42.7,69.8c-0.3,0.2-0.4,0.4-0.6,0.6c-0.2-0.3-0.5-0.5-0.7-0.7C41.8,69.3,42.4,69.4,42.7,69.8z M43.7,68
			c-1.3-0.9-3.2-0.6-4,0.8c-0.3-0.1-0.6-0.2-0.9-0.2c0.7-1.2,1.9-1.9,3.3-1.9c1.4,0,2.6,0.8,3.3,2c0,0,0,0,0,0
			c-0.3,0.1-0.6,0.1-0.9,0.3C44.2,68.5,44,68.2,43.7,68z M41.8,66.1c-1.5,0.1-2.9,1-3.5,2.4c-0.4,0-0.8,0-1.2,0
			c0.7-1.8,2.3-3.1,4.2-3.4c1.8-0.3,3.7,0.5,4.9,1.9c-0.2,0.3-0.4,0.7-0.6,1C44.7,66.7,43.2,66,41.8,66.1z M32.2,69.4
			c-0.3-0.2-0.6-0.4-0.9-0.5c1-1.3,3-1.3,3.9,0.1c0,0,0,0,0,0c-0.3,0.1-0.6,0.3-0.9,0.5C33.8,68.8,32.7,68.8,32.2,69.4z M33.9,69.8
			C33.9,69.9,33.9,69.9,33.9,69.8c-0.3,0.2-0.4,0.4-0.6,0.6c-0.2-0.3-0.5-0.5-0.7-0.7C32.9,69.3,33.6,69.4,33.9,69.8z M34.8,68
			c-1.3-0.9-3.2-0.6-4,0.8c-0.3-0.1-0.6-0.2-0.9-0.2c0.7-1.2,1.9-1.9,3.3-1.9c1.4,0,2.6,0.8,3.3,2c0,0,0,0,0,0
			c-0.3,0.1-0.6,0.1-0.9,0.3C35.4,68.5,35.2,68.2,34.8,68z M32.9,66.1c-1.5,0.1-2.9,1-3.5,2.4c-0.4,0-0.8,0-1.2,0
			c0.7-1.8,2.3-3.1,4.2-3.4c1.8-0.3,3.7,0.5,4.9,1.9c-0.2,0.3-0.4,0.7-0.6,1C35.9,66.7,34.4,66,32.9,66.1z M23.3,60.3
			c1.1-0.5,2.4-0.2,3.1,0.8c-0.3,0.2-0.6,0.3-0.9,0.5c-0.5-0.7-1.6-0.8-2.1-0.1c-0.3-0.2-0.6-0.4-0.9-0.5
			C22.7,60.7,23,60.5,23.3,60.3z M22,60.9c-0.3-0.1-0.6-0.2-0.9-0.2c0.6-1.2,1.9-1.9,3.2-1.9c1.4,0,2.7,0.8,3.3,2c0,0,0,0,0,0
			c-0.3,0.1-0.6,0.1-0.9,0.3C25.7,59.2,23.1,59.1,22,60.9z M25.1,62c-0.2,0.2-0.4,0.4-0.6,0.6c-0.1-0.1-0.2-0.2-0.3-0.4
			c-0.1-0.1-0.3-0.2-0.4-0.4C24.1,61.4,24.8,61.5,25.1,62z M28.1,61.1c1.8-0.3,3.8,0.4,4.9,1.9c-0.2,0.3-0.4,0.7-0.6,1
			c-0.8-1.3-2.3-2-3.9-1.9c-1.5,0.1-2.8,1.1-3.5,2.4c-0.2,0-0.5,0-0.7,0c-0.2,0-0.3,0-0.5,0C24.6,62.7,26.2,61.4,28.1,61.1z
			 M23.3,52.4c1.1-0.5,2.4-0.2,3.1,0.8c-0.3,0.2-0.6,0.3-0.9,0.5c-0.5-0.7-1.6-0.8-2.1-0.1c-0.3-0.2-0.6-0.4-0.9-0.5
			C22.7,52.8,23,52.6,23.3,52.4z M22,53c-0.3-0.1-0.6-0.2-0.9-0.2c0.7-1.2,1.9-1.9,3.3-1.9c1.4,0,2.6,0.8,3.3,2c0,0,0,0,0,0
			c-0.3,0.1-0.6,0.1-0.9,0.3C25.7,51.3,23.1,51.2,22,53z M25.1,54.1c-0.2,0.2-0.4,0.4-0.6,0.6c-0.1-0.1-0.2-0.2-0.3-0.4
			c-0.1-0.1-0.3-0.2-0.4-0.4C24.1,53.6,24.8,53.6,25.1,54.1z M28.1,53.2c1.8-0.3,3.8,0.4,4.9,1.9c-0.2,0.3-0.4,0.7-0.6,1
			c-0.8-1.3-2.3-2-3.9-1.9c-1.5,0.1-2.8,1.1-3.5,2.4c-0.2,0-0.5,0-0.7,0c-0.2,0-0.3,0-0.5,0C24.6,54.8,26.2,53.5,28.1,53.2z
			 M23.3,44.5c1.1-0.5,2.4-0.2,3.1,0.8c-0.3,0.2-0.6,0.3-0.9,0.5c-0.5-0.7-1.6-0.8-2.1-0.1c-0.3-0.2-0.6-0.4-0.9-0.5
			C22.7,45,23,44.7,23.3,44.5z M22,45.1c-0.3-0.1-0.6-0.2-0.9-0.2c0.7-1.2,1.9-1.9,3.3-1.9c1.4,0,2.6,0.8,3.3,2c0,0,0,0,0,0
			c-0.3,0.1-0.6,0.1-0.9,0.3C25.7,43.4,23.1,43.4,22,45.1z M25.1,46.2c-0.2,0.2-0.4,0.4-0.6,0.6c-0.1-0.1-0.2-0.2-0.3-0.4
			c-0.1-0.1-0.3-0.2-0.4-0.4C24.1,45.7,24.8,45.7,25.1,46.2z M28.1,45.3c1.8-0.3,3.8,0.4,4.9,1.9c-0.2,0.3-0.4,0.7-0.6,1
			c-0.8-1.3-2.3-2-3.9-1.9c-1.5,0.1-2.8,1.1-3.5,2.4c-0.2,0-0.5,0-0.7,0c-0.2,0-0.3,0-0.5,0C24.6,47,26.2,45.6,28.1,45.3z
			 M23.3,36.6c1.1-0.5,2.4-0.2,3.1,0.8c-0.3,0.2-0.6,0.3-0.9,0.5c-0.5-0.7-1.6-0.8-2.1-0.1c-0.3-0.2-0.6-0.4-0.9-0.5
			C22.7,37.1,23,36.8,23.3,36.6z M22,37.2c-0.3-0.1-0.6-0.2-0.9-0.2c0.6-1.2,1.9-1.9,3.2-1.9c1.4,0,2.7,0.8,3.3,2c0,0,0,0,0,0
			c-0.3,0.1-0.6,0.1-0.9,0.3C25.7,35.5,23.1,35.5,22,37.2z M25.1,38.3c-0.2,0.2-0.4,0.4-0.6,0.6c-0.1-0.1-0.2-0.2-0.3-0.4
			c-0.1-0.1-0.3-0.2-0.4-0.4C24.1,37.8,24.8,37.8,25.1,38.3z M28.1,37.4c1.8-0.3,3.8,0.4,4.9,1.9c-0.2,0.3-0.4,0.7-0.6,1
			c-0.8-1.3-2.3-2-3.9-1.9c-1.5,0.1-2.8,1.1-3.5,2.4c-0.2,0-0.5,0-0.7,0c-0.2,0-0.3,0-0.5,0C24.6,39.1,26.2,37.7,28.1,37.4z
			 M23.3,28.8c1.1-0.5,2.4-0.2,3.1,0.8c-0.3,0.2-0.6,0.3-0.9,0.5c-0.5-0.7-1.6-0.8-2.1-0.1c-0.3-0.2-0.6-0.4-0.9-0.5
			C22.7,29.2,23,28.9,23.3,28.8z M22,29.3c-0.3-0.1-0.6-0.2-0.9-0.2c0.6-1.2,1.9-1.9,3.2-1.9c1.4,0,2.7,0.8,3.3,2c0,0,0,0,0,0
			c-0.3,0.1-0.6,0.1-0.9,0.3C25.7,27.6,23.1,27.6,22,29.3z M25.1,30.4c-0.2,0.2-0.4,0.4-0.6,0.6c-0.1-0.1-0.2-0.2-0.3-0.4
			c-0.1-0.1-0.3-0.2-0.4-0.4C24.1,29.9,24.8,30,25.1,30.4z M28,29.6c1.9-0.3,3.8,0.4,5,1.9c-0.2,0.3-0.4,0.7-0.6,1
			c-0.8-1.3-2.3-2-3.9-1.9c-1.5,0.1-2.8,1.1-3.5,2.4c-0.2,0-0.5,0-0.7,0c-0.2,0-0.3,0-0.5,0C24.6,31.2,26.2,29.9,28,29.6z M76.2,30
			c-0.3-0.2-0.6-0.4-0.9-0.5c1-1.3,3-1.3,3.9,0.1c0,0,0,0,0,0c-0.3,0.1-0.6,0.3-0.9,0.5C77.9,29.4,76.8,29.3,76.2,30z M78,30.4
			C77.9,30.4,77.9,30.5,78,30.4c-0.3,0.2-0.4,0.4-0.6,0.6c-0.2-0.3-0.5-0.5-0.7-0.7C77,29.9,77.7,30,78,30.4z M78.6,28.3
			c-1.3-0.7-2.9-0.2-3.7,1c-0.3-0.1-0.6-0.2-0.9-0.2c0.6-1.2,1.9-1.9,3.2-1.9c1.4,0,2.7,0.8,3.3,2c0,0,0,0,0,0
			c-0.3,0.1-0.6,0.1-0.9,0.3C79.4,28.9,79,28.6,78.6,28.3z M77.1,31.4c-0.1,0.1-0.2,0.3-0.3,0.4c-0.1,0.2-0.2,0.4-0.3,0.6
			c-0.9-1.3-2.4-2-3.9-1.9c-1.5,0.1-2.8,1.1-3.4,2.4c-0.4,0-0.8-0.1-1.2,0c0.7-1.8,2.3-3.1,4.1-3.4C74,29.2,75.9,30,77.1,31.4z
			 M82.4,33.6c-0.6-0.3-1.4-0.1-1.7,0.5c-0.3-0.2-0.6-0.4-0.9-0.5c0.9-1.4,3-1.5,4-0.1c-0.3,0.1-0.6,0.3-0.9,0.5
			C82.7,33.8,82.5,33.7,82.4,33.6z M82.4,34.3c-0.3,0.2-0.5,0.5-0.8,0.7c-0.1-0.1-0.1-0.1-0.2-0.2c-0.1-0.2-0.3-0.3-0.5-0.4
			C81.3,33.9,82,33.8,82.4,34.3z M79.3,33.3c-0.3-0.1-0.6-0.2-0.9-0.3c0.2-0.4,0.5-0.8,0.9-1.1c1.8-1.5,4.6-1,5.7,1.1c0,0,0,0,0,0
			c-0.3,0.1-0.6,0.1-0.9,0.2C83.1,31.5,80.4,31.5,79.3,33.3z M81.3,35.4c-0.2,0.3-0.4,0.7-0.6,1c-0.8-1.3-2.3-2-3.8-1.9
			c-1.5,0.1-2.8,1-3.5,2.4c-0.4,0-0.8,0-1.2,0c0.8-2.2,3-3.6,5.3-3.5C79,33.5,80.4,34.3,81.3,35.4z M82.4,41.5
			c-0.6-0.3-1.4-0.1-1.7,0.5c-0.3-0.2-0.6-0.4-0.9-0.5c0.9-1.4,3-1.5,4-0.1c-0.3,0.1-0.6,0.3-0.9,0.5C82.7,41.7,82.5,41.6,82.4,41.5
			z M82.4,42.1c-0.3,0.2-0.5,0.5-0.8,0.7c-0.1-0.1-0.1-0.1-0.2-0.2c-0.1-0.2-0.3-0.3-0.5-0.4C81.3,41.7,82,41.7,82.4,42.1z
			 M79.3,41.2C79,41.1,78.7,41,78.5,41c0.2-0.4,0.5-0.8,0.9-1.1c1.8-1.5,4.6-1,5.7,1.1c0,0,0,0,0,0c-0.3,0.1-0.6,0.1-0.9,0.2
			C83.1,39.4,80.4,39.4,79.3,41.2z M81.3,43.3c-0.2,0.3-0.4,0.7-0.6,1c-0.8-1.2-2.2-2-3.7-1.9c-1.5,0.1-2.9,1-3.6,2.4
			c-0.4,0-0.8,0-1.2,0c0.8-2.2,3-3.6,5.3-3.5C79,41.4,80.4,42.1,81.3,43.3z M82.4,49.4c-0.6-0.3-1.4-0.1-1.7,0.5
			c-0.3-0.2-0.6-0.4-0.9-0.5c0.9-1.4,3-1.5,4-0.1c-0.3,0.1-0.6,0.3-0.9,0.5C82.7,49.6,82.5,49.5,82.4,49.4z M82.4,50
			c-0.2,0.2-0.4,0.4-0.6,0.6c-0.1,0.1-0.1,0.1-0.2,0.2c-0.2-0.2-0.4-0.4-0.6-0.6C81.3,49.6,82,49.6,82.4,50z M79.3,49.1
			c-0.3-0.1-0.6-0.2-0.9-0.3c0.2-0.4,0.5-0.8,0.9-1.1c1.8-1.5,4.6-1,5.7,1.1c0,0,0,0,0,0c-0.3,0.1-0.6,0.1-0.9,0.2
			C83.1,47.3,80.4,47.3,79.3,49.1z M81.3,51.2c-0.2,0.3-0.4,0.7-0.6,1c-0.8-1.3-2.3-2-3.8-1.9c-1.5,0.1-2.8,1-3.5,2.4
			c-0.4,0-0.8,0-1.2,0c0.8-2.2,3-3.6,5.3-3.5C79,49.3,80.4,50,81.3,51.2z M82.4,57.2c-0.6-0.3-1.4-0.1-1.7,0.5
			c-0.3-0.2-0.6-0.4-0.9-0.5c0.9-1.4,3-1.5,4-0.1c-0.3,0.1-0.6,0.3-0.9,0.5C82.7,57.5,82.5,57.3,82.4,57.2z M82.4,57.9
			c-0.3,0.2-0.5,0.5-0.8,0.7c-0.1-0.1-0.1-0.1-0.2-0.2c-0.1-0.2-0.3-0.3-0.5-0.4C81.3,57.5,82,57.5,82.4,57.9z M79.3,57
			c-0.3-0.1-0.6-0.2-0.9-0.3c0.2-0.4,0.5-0.8,0.9-1.1c1.8-1.5,4.6-1,5.7,1.1c0,0,0,0,0,0c-0.3,0.1-0.6,0.1-0.9,0.2
			C83.1,55.1,80.4,55.2,79.3,57z M81.3,59c-0.2,0.3-0.4,0.7-0.6,1c-0.8-1.3-2.3-2-3.8-1.9c-1.5,0.1-2.8,1-3.5,2.4
			c-0.4,0-0.8,0-1.2,0c0.8-2.2,3-3.6,5.3-3.5C79,57.2,80.4,57.9,81.3,59z M73.6,65.1c-0.6-0.3-1.4-0.1-1.7,0.5
			c-0.3-0.2-0.6-0.4-0.9-0.5c0.9-1.4,3-1.5,4-0.1c-0.3,0.1-0.6,0.3-0.9,0.5C73.9,65.3,73.7,65.2,73.6,65.1z M73.6,65.8
			c-0.3,0.2-0.5,0.5-0.8,0.7c-0.2-0.2-0.4-0.4-0.6-0.6C72.5,65.4,73.2,65.3,73.6,65.8z M70.5,64.9c-0.3-0.1-0.6-0.2-0.9-0.3
			c0.2-0.4,0.5-0.8,0.9-1.1c1.8-1.5,4.6-1,5.7,1.1c0,0,0,0,0,0c-0.3,0.1-0.6,0.1-0.9,0.2C74.3,63,71.6,63.1,70.5,64.9z M72.6,62.1
			c-1.5,0.1-2.8,1.1-3.4,2.4c-0.4,0-0.8-0.1-1.2,0c0.7-1.8,2.3-3.1,4.2-3.4c1.8-0.3,3.7,0.4,4.9,1.9c-0.1,0.1-0.2,0.3-0.3,0.4
			c-0.1,0.2-0.2,0.4-0.3,0.6C75.6,62.7,74.1,62,72.6,62.1z M64.7,65.1c-0.6-0.3-1.4-0.1-1.7,0.5c-0.3-0.2-0.6-0.4-0.9-0.5
			c0.9-1.4,3-1.5,4-0.1c-0.3,0.1-0.6,0.3-0.9,0.5C65.1,65.3,64.9,65.2,64.7,65.1z M64.8,65.8c-0.3,0.2-0.5,0.5-0.8,0.7
			c-0.2-0.2-0.4-0.4-0.6-0.6C63.7,65.4,64.4,65.3,64.8,65.8z M65.8,64c-1.3-1-3.3-0.5-4.1,0.9c-0.3-0.1-0.6-0.2-0.9-0.3
			c0.6-1.2,1.9-2,3.3-2c1.4,0,2.7,0.8,3.3,2c0,0,0,0,0,0c-0.3,0.1-0.6,0.1-0.9,0.2C66.4,64.5,66.1,64.2,65.8,64z M63.8,62.1
			c-1.5,0.1-2.8,1.1-3.4,2.4c-0.4,0-0.8-0.1-1.2,0c0.7-1.8,2.3-3.1,4.2-3.4c1.8-0.3,3.7,0.4,4.9,1.9c-0.1,0.1-0.2,0.3-0.3,0.4
			c-0.1,0.2-0.2,0.4-0.3,0.6C66.8,62.7,65.3,62,63.8,62.1z M55.9,65.1c-0.6-0.3-1.4-0.1-1.7,0.5c-0.3-0.2-0.6-0.4-0.9-0.5
			c0.9-1.4,3-1.5,4-0.1c-0.3,0.1-0.6,0.3-0.9,0.5C56.3,65.3,56.1,65.2,55.9,65.1z M56,65.8c-0.3,0.2-0.5,0.5-0.8,0.7
			c-0.2-0.2-0.4-0.4-0.6-0.6C54.9,65.4,55.6,65.3,56,65.8z M57,64c-1.3-1-3.3-0.5-4.1,0.9c-0.3-0.1-0.6-0.2-0.9-0.3
			c0.6-1.2,1.9-2,3.3-2c1.4,0,2.7,0.8,3.3,2c0,0,0,0,0,0c-0.3,0.1-0.6,0.1-0.9,0.2C57.6,64.5,57.3,64.2,57,64z M55,62.1
			c-1.5,0.1-2.8,1.1-3.4,2.4c-0.4,0-0.8-0.1-1.2,0c0.7-1.8,2.3-3.1,4.2-3.4c1.8-0.3,3.7,0.4,4.9,1.9c-0.2,0.3-0.4,0.7-0.6,1
			C58,62.7,56.5,62,55,62.1z M47.1,65.1c-0.6-0.3-1.4-0.1-1.7,0.5c-0.3-0.2-0.6-0.4-0.9-0.5c0.9-1.4,3-1.5,4-0.1
			c-0.3,0.1-0.6,0.3-0.9,0.5C47.4,65.3,47.3,65.2,47.1,65.1z M47.2,65.8c-0.3,0.2-0.5,0.5-0.8,0.7c-0.2-0.2-0.4-0.4-0.6-0.6
			C46.1,65.4,46.8,65.3,47.2,65.8z M48.2,64c-1.3-1-3.3-0.5-4.1,0.9c-0.3-0.1-0.6-0.2-0.9-0.3c0.6-1.2,1.9-2,3.3-2
			c1.4,0,2.7,0.8,3.3,2c0,0,0,0,0,0c-0.3,0.1-0.6,0.1-0.9,0.2C48.7,64.5,48.5,64.2,48.2,64z M46.1,62.1c-1.5,0.1-2.8,1.1-3.4,2.4
			c-0.4,0-0.8-0.1-1.2,0c0.7-1.8,2.3-3.1,4.1-3.4c1.8-0.3,3.8,0.4,4.9,1.9c-0.2,0.3-0.4,0.7-0.6,1C49.2,62.7,47.7,62,46.1,62.1z
			 M38.3,65.1c-0.6-0.3-1.4-0.1-1.7,0.5c-0.3-0.2-0.6-0.4-0.9-0.5c0.9-1.4,3-1.5,4-0.1c-0.3,0.1-0.6,0.3-0.9,0.5
			C38.6,65.3,38.5,65.2,38.3,65.1z M38.4,65.8c-0.3,0.2-0.5,0.5-0.8,0.7c-0.1-0.1-0.2-0.2-0.3-0.4c-0.1-0.1-0.2-0.2-0.3-0.3
			C37.3,65.4,38,65.3,38.4,65.8z M39.4,64c-1.3-1-3.3-0.5-4.1,0.9c-0.3-0.1-0.6-0.2-0.9-0.3c0.6-1.2,1.9-2,3.3-2
			c1.4,0,2.7,0.8,3.3,2c0,0,0,0,0,0c-0.3,0.1-0.6,0.1-0.9,0.2C39.9,64.5,39.7,64.2,39.4,64z M37.4,62.1c-1.5,0.1-2.8,1.1-3.5,2.4
			c-0.2,0-0.5,0-0.7,0c-0.2,0-0.3,0-0.5,0c0.7-1.8,2.3-3.1,4.2-3.4c1.8-0.3,3.7,0.4,4.9,1.9c-0.2,0.3-0.4,0.7-0.6,1
			C40.4,62.7,38.9,62,37.4,62.1z M32.1,60.3c1.1-0.5,2.4-0.2,3.1,0.8c-0.3,0.2-0.6,0.3-0.9,0.5c-0.5-0.7-1.6-0.8-2.1-0.1
			c-0.3-0.2-0.6-0.4-0.9-0.5C31.5,60.7,31.8,60.5,32.1,60.3z M30.8,60.9c-0.3-0.1-0.6-0.2-0.9-0.2c0.6-1.2,1.9-1.9,3.2-1.9
			c1.4,0,2.7,0.8,3.3,2c0,0,0,0,0,0c-0.3,0.1-0.6,0.1-0.9,0.3C34.6,59.2,31.9,59.1,30.8,60.9z M33.9,62c-0.2,0.2-0.4,0.4-0.6,0.6
			c-0.1-0.1-0.2-0.2-0.3-0.4c-0.1-0.1-0.3-0.2-0.4-0.4C32.9,61.4,33.6,61.5,33.9,62z M32.1,52.4c1.1-0.5,2.4-0.2,3.1,0.8
			c-0.3,0.2-0.6,0.3-0.9,0.5c-0.5-0.7-1.6-0.8-2.1-0.1c-0.3-0.2-0.6-0.4-0.9-0.5C31.5,52.8,31.8,52.6,32.1,52.4z M30.8,53
			c-0.3-0.1-0.6-0.2-0.9-0.2c0.7-1.2,1.9-1.9,3.3-1.9c1.4,0,2.6,0.8,3.3,2c0,0,0,0,0,0c-0.3,0.1-0.6,0.1-0.9,0.3
			C34.6,51.3,31.9,51.2,30.8,53z M33.9,54.1c-0.2,0.2-0.4,0.4-0.6,0.6c-0.1-0.1-0.2-0.2-0.3-0.4c-0.1-0.1-0.3-0.2-0.4-0.4
			C32.9,53.6,33.6,53.6,33.9,54.1z M36.9,53.2c1.8-0.3,3.7,0.4,4.9,1.9c-0.2,0.3-0.4,0.7-0.6,1c-0.8-1.3-2.3-2-3.9-1.9
			c-1.5,0.1-2.8,1.1-3.5,2.4c-0.2,0-0.5,0-0.7,0c-0.2,0-0.3,0-0.5,0C33.4,54.8,35,53.5,36.9,53.2z M32.1,44.5
			c1.1-0.5,2.4-0.2,3.1,0.8c-0.3,0.2-0.6,0.3-0.9,0.5c-0.5-0.7-1.6-0.8-2.1-0.1c-0.3-0.2-0.6-0.4-0.9-0.5
			C31.5,45,31.8,44.7,32.1,44.5z M30.8,45.1c-0.3-0.1-0.6-0.2-0.9-0.2c0.7-1.2,1.9-1.9,3.3-1.9c1.4,0,2.6,0.8,3.3,2c0,0,0,0,0,0
			c-0.3,0.1-0.6,0.1-0.9,0.3C34.6,43.4,31.9,43.4,30.8,45.1z M33.9,46.2c-0.2,0.2-0.4,0.4-0.6,0.6c-0.1-0.1-0.2-0.2-0.3-0.4
			c-0.1-0.1-0.3-0.2-0.4-0.4C32.9,45.7,33.6,45.7,33.9,46.2z M36.9,45.3c1.8-0.3,3.7,0.4,4.9,1.9c-0.2,0.3-0.4,0.7-0.6,1
			c-0.8-1.3-2.3-2-3.9-1.9c-1.5,0.1-2.8,1.1-3.5,2.4c-0.2,0-0.5,0-0.7,0c-0.2,0-0.3,0-0.5,0C33.4,46.9,35,45.6,36.9,45.3z
			 M32.1,36.6c1.1-0.5,2.4-0.2,3.1,0.8c-0.3,0.2-0.6,0.3-0.9,0.5c-0.5-0.7-1.6-0.8-2.1-0.1c-0.3-0.2-0.6-0.4-0.9-0.5
			C31.5,37.1,31.8,36.8,32.1,36.6z M30.8,37.2c-0.3-0.1-0.6-0.2-0.9-0.2c0.6-1.2,1.9-1.9,3.2-1.9c1.4,0,2.7,0.8,3.3,2c0,0,0,0,0,0
			c-0.3,0.1-0.6,0.1-0.9,0.3C34.6,35.5,31.9,35.5,30.8,37.2z M33.9,38.3c-0.2,0.2-0.4,0.4-0.6,0.6c-0.1-0.1-0.2-0.2-0.3-0.4
			c-0.1-0.1-0.3-0.2-0.4-0.4C32.9,37.8,33.6,37.8,33.9,38.3z M36.9,37.4c1.8-0.3,3.7,0.4,4.9,1.9c-0.2,0.3-0.4,0.7-0.6,1
			c-0.8-1.3-2.3-2-3.9-1.9c-1.5,0.1-2.8,1.1-3.5,2.4c-0.2,0-0.5,0-0.7,0c-0.2,0-0.3,0-0.5,0C33.4,39.1,35,37.7,36.9,37.4z
			 M39.7,33.5c-0.3,0.1-0.6,0.3-0.9,0.5c-0.6-0.7-1.7-0.7-2.2,0.1c-0.3-0.2-0.6-0.4-0.9-0.5C36.6,32.1,38.7,32.1,39.7,33.5z
			 M35.3,33.3c-0.3-0.1-0.5-0.2-0.8-0.2c0,0,0,0,0,0c0.6-1.2,1.9-2,3.3-2c1.4,0,2.7,0.8,3.3,2c0,0,0,0,0,0c-0.3,0.1-0.6,0.1-0.9,0.2
			C39,31.5,36.3,31.5,35.3,33.3z M38.4,34.3c-0.3,0.2-0.5,0.5-0.8,0.7c-0.2-0.2-0.4-0.4-0.6-0.6C37.3,33.9,38,33.8,38.4,34.3z
			 M41.7,33.5c1.7-0.1,3.3,0.6,4.4,1.9c-0.2,0.3-0.4,0.7-0.6,1c-0.8-1.3-2.3-2-3.8-1.9c-1.5,0.1-2.8,1-3.5,2.4c-0.4,0-0.8,0-1.2,0
			c0.1-0.4,0.3-0.7,0.5-1.1C38.5,34.5,40,33.5,41.7,33.5z M73.6,33.6c-0.6-0.3-1.4-0.1-1.7,0.5c-0.3-0.2-0.6-0.4-0.9-0.5
			c0.9-1.4,3-1.5,4-0.1c-0.3,0.1-0.6,0.3-0.9,0.5C73.9,33.8,73.7,33.7,73.6,33.6z M73.6,34.3c-0.3,0.2-0.5,0.5-0.8,0.7
			c-0.1-0.1-0.1-0.1-0.2-0.2c-0.1-0.2-0.3-0.3-0.5-0.4C72.5,33.9,73.2,33.8,73.6,34.3z M70.5,33.3c-0.3-0.1-0.6-0.2-0.9-0.3
			c0.2-0.4,0.5-0.8,0.9-1.1c1.8-1.5,4.6-1,5.7,1.1c0,0,0,0,0,0c-0.3,0.1-0.6,0.1-0.9,0.2C74.3,31.5,71.6,31.5,70.5,33.3z M72.5,35.4
			c-0.2,0.3-0.4,0.7-0.6,1c-0.8-1.3-2.3-2-3.8-1.9c-1.5,0.1-2.8,1-3.5,2.4c-0.4,0-0.8,0-1.2,0c0.8-2.2,3-3.6,5.3-3.5
			C70.2,33.5,71.6,34.3,72.5,35.4z M73.6,41.5c-0.6-0.3-1.4-0.1-1.7,0.5c-0.3-0.2-0.6-0.4-0.9-0.5c0.9-1.4,3-1.5,4-0.1
			c-0.3,0.1-0.6,0.3-0.9,0.5C73.9,41.7,73.7,41.6,73.6,41.5z M73.6,42.1c-0.3,0.2-0.5,0.5-0.8,0.7c-0.1-0.1-0.1-0.1-0.2-0.2
			c-0.1-0.2-0.3-0.3-0.5-0.4C72.5,41.7,73.2,41.7,73.6,42.1z M70.5,41.2c-0.3-0.1-0.6-0.2-0.9-0.3c0.2-0.4,0.5-0.8,0.9-1.1
			c1.8-1.5,4.6-1,5.7,1.1c0,0,0,0,0,0c-0.3,0.1-0.6,0.1-0.9,0.2C74.3,39.4,71.6,39.4,70.5,41.2z M72.5,43.3c-0.2,0.3-0.4,0.7-0.6,1
			c-0.8-1.2-2.2-2-3.7-1.9c-1.5,0.1-2.9,1-3.6,2.4c-0.4,0-0.8,0-1.2,0c0.8-2.2,3-3.6,5.3-3.5C70.2,41.4,71.6,42.1,72.5,43.3z
			 M73.6,49.4c-0.6-0.3-1.4-0.1-1.7,0.5c-0.3-0.2-0.6-0.4-0.9-0.5c0.9-1.4,3-1.5,4-0.1c-0.3,0.1-0.6,0.3-0.9,0.5
			C73.9,49.6,73.7,49.5,73.6,49.4z M73.6,50c-0.2,0.2-0.4,0.4-0.6,0.6c-0.1,0.1-0.1,0.1-0.2,0.2c-0.2-0.2-0.4-0.4-0.6-0.6
			C72.5,49.6,73.2,49.6,73.6,50z M70.5,49.1c-0.3-0.1-0.6-0.2-0.9-0.3c0.2-0.4,0.5-0.8,0.9-1.1c1.8-1.5,4.6-1,5.7,1.1c0,0,0,0,0,0
			c-0.3,0.1-0.6,0.1-0.9,0.2C74.3,47.3,71.6,47.3,70.5,49.1z M72.5,51.2c-0.2,0.3-0.4,0.7-0.6,1c-0.8-1.3-2.3-2-3.8-1.9
			c-1.5,0.1-2.8,1-3.5,2.4c-0.4,0-0.8,0-1.2,0c0.8-2.2,3-3.6,5.3-3.5C70.2,49.3,71.6,50,72.5,51.2z M73.6,57.2
			c-0.6-0.3-1.4-0.1-1.7,0.5c-0.3-0.2-0.6-0.4-0.9-0.5c0.9-1.4,3-1.5,4-0.1c-0.3,0.1-0.6,0.3-0.9,0.5C73.9,57.5,73.7,57.3,73.6,57.2
			z M73.6,57.9c-0.3,0.2-0.5,0.5-0.8,0.7c-0.1-0.1-0.1-0.1-0.2-0.2c-0.1-0.2-0.3-0.3-0.5-0.4C72.5,57.5,73.2,57.5,73.6,57.9z
			 M70.5,57c-0.3-0.1-0.6-0.2-0.9-0.3c0.2-0.4,0.5-0.8,0.9-1.1c1.8-1.5,4.6-1,5.7,1.1c0,0,0,0,0,0c-0.3,0.1-0.6,0.1-0.9,0.2
			C74.3,55.1,71.6,55.2,70.5,57z M72.5,59c-0.2,0.3-0.4,0.7-0.6,1c-0.8-1.3-2.3-2-3.8-1.9c-1.5,0.1-2.8,1-3.5,2.4
			c-0.4,0-0.8,0-1.2,0c0.8-2.2,3-3.6,5.3-3.5C70.2,57.2,71.6,57.9,72.5,59z M67.4,61.6c-0.3-0.2-0.6-0.4-0.9-0.5
			c1-1.3,3-1.3,3.9,0.1c0,0,0,0,0,0c-0.3,0.1-0.6,0.3-0.9,0.5C69,60.9,68,60.9,67.4,61.6z M69.2,62C69.1,62,69.1,62,69.2,62
			c-0.3,0.2-0.4,0.4-0.6,0.6c-0.2-0.3-0.5-0.5-0.7-0.7C68.2,61.4,68.9,61.5,69.2,62z M70.1,60.1c-1.3-0.9-3.2-0.6-4,0.8
			c-0.3-0.1-0.6-0.2-0.9-0.2c0.7-1.2,2-2,3.3-1.9c1.3,0,2.6,0.8,3.2,2c0,0,0,0,0,0c-0.3,0.1-0.6,0.1-0.9,0.3
			C70.7,60.6,70.4,60.3,70.1,60.1z M58.6,61.6c-0.3-0.2-0.6-0.4-0.9-0.5c1-1.3,3-1.3,3.9,0.1c0,0,0,0,0,0c-0.3,0.1-0.6,0.3-0.9,0.5
			C60.2,60.9,59.2,60.9,58.6,61.6z M60.3,62C60.3,62,60.3,62,60.3,62c-0.3,0.2-0.4,0.4-0.6,0.6c-0.2-0.3-0.5-0.5-0.7-0.7
			C59.4,61.4,60,61.5,60.3,62z M61.3,60.1c-1.3-0.9-3.2-0.6-4,0.8c-0.3-0.1-0.6-0.2-0.9-0.2c0.7-1.2,2-2,3.3-1.9
			c1.3,0,2.6,0.8,3.2,2c0,0,0,0,0,0c-0.3,0.1-0.6,0.1-0.9,0.3C61.9,60.6,61.6,60.3,61.3,60.1z M59.3,58.2c-1.5,0.1-2.8,1-3.5,2.4
			c-0.4,0-0.8,0-1.2,0c0.8-2.2,3-3.6,5.3-3.5c1.5,0.1,2.9,0.8,3.8,1.9c-0.2,0.3-0.4,0.7-0.6,1C62.3,58.8,60.8,58.1,59.3,58.2z
			 M49.8,61.6c-0.3-0.2-0.6-0.4-0.9-0.5c1-1.3,3-1.3,3.9,0.1c0,0,0,0,0,0c-0.3,0.1-0.6,0.3-0.9,0.5C51.4,60.9,50.4,60.9,49.8,61.6z
			 M51.5,62C51.5,62,51.5,62,51.5,62c-0.3,0.2-0.4,0.4-0.6,0.6c-0.2-0.3-0.5-0.5-0.7-0.7C50.6,61.4,51.2,61.5,51.5,62z M52.5,60.1
			c-1.3-0.9-3.2-0.6-4,0.8c-0.3-0.1-0.6-0.2-0.9-0.2c0.7-1.2,2-2,3.3-1.9c1.3,0,2.6,0.8,3.2,2c0,0,0,0,0,0c-0.3,0.1-0.6,0.1-0.9,0.3
			C53,60.6,52.8,60.3,52.5,60.1z M50.5,58.2c-1.5,0.1-2.8,1-3.5,2.4c-0.2,0-0.3,0-0.5,0c-0.2,0-0.5,0-0.7,0c0.7-1.8,2.3-3.1,4.2-3.4
			c1.8-0.3,3.7,0.5,4.9,1.9c-0.2,0.3-0.4,0.7-0.6,1C53.5,58.8,52,58.1,50.5,58.2z M40.9,52.4c1.1-0.5,2.4-0.2,3.1,0.8
			c-0.3,0.2-0.6,0.3-0.9,0.5c-0.5-0.7-1.6-0.8-2.1-0.1c-0.3-0.2-0.6-0.4-0.9-0.5C40.3,52.8,40.6,52.6,40.9,52.4z M39.6,53
			c-0.3-0.1-0.6-0.2-0.9-0.2c0.7-1.2,2-2,3.3-1.9c1.3,0,2.6,0.8,3.2,2c0,0,0,0,0,0c-0.3,0.1-0.6,0.1-0.9,0.3
			C43.4,51.3,40.7,51.2,39.6,53z M42.7,54.1c-0.2,0.2-0.4,0.4-0.6,0.6c-0.1-0.1-0.2-0.2-0.3-0.4c-0.1-0.1-0.3-0.2-0.4-0.4
			C41.8,53.6,42.4,53.6,42.7,54.1z M45.7,53.2c1.8-0.3,3.8,0.4,4.9,1.9c-0.2,0.3-0.4,0.7-0.6,1c-0.9-1.3-2.4-2-3.9-1.9
			c-1.5,0.1-2.8,1.1-3.4,2.4c-0.4,0-0.8-0.1-1.2,0C42.2,54.8,43.8,53.5,45.7,53.2z M40.9,44.5c1.1-0.5,2.4-0.2,3.1,0.8
			c-0.3,0.2-0.6,0.3-0.9,0.5c-0.5-0.7-1.6-0.8-2.1-0.1c-0.3-0.2-0.6-0.4-0.9-0.5C40.3,45,40.6,44.7,40.9,44.5z M39.6,45.1
			c-0.3-0.1-0.6-0.2-0.9-0.2c0.7-1.2,1.9-1.9,3.3-1.9c1.4,0,2.6,0.8,3.3,2c0,0,0,0,0,0C45,45,44.7,45,44.4,45.1
			C43.4,43.4,40.7,43.4,39.6,45.1z M42.7,46.2c-0.2,0.2-0.4,0.4-0.6,0.6c-0.1-0.1-0.2-0.2-0.3-0.4c-0.1-0.1-0.3-0.2-0.4-0.4
			C41.8,45.7,42.4,45.7,42.7,46.2z M45.7,45.3c1.8-0.3,3.7,0.4,4.9,1.9c-0.2,0.3-0.4,0.7-0.6,1c-0.8-1.3-2.3-2-3.8-1.9
			c-1.5,0.1-2.9,1.1-3.5,2.4c-0.4,0-0.8-0.1-1.2,0C42.2,46.9,43.8,45.6,45.7,45.3z M40.9,36.6c1.1-0.5,2.4-0.2,3.1,0.8
			c-0.3,0.2-0.6,0.3-0.9,0.5c-0.5-0.7-1.6-0.8-2.1-0.1c-0.3-0.2-0.6-0.4-0.9-0.5C40.3,37.1,40.6,36.8,40.9,36.6z M39.6,37.2
			C39.3,37.1,39,37,38.7,37c0.7-1.2,2-2,3.3-1.9c1.3,0,2.6,0.8,3.2,2c0,0,0,0,0,0c-0.3,0.1-0.6,0.1-0.9,0.3
			C43.4,35.5,40.7,35.5,39.6,37.2z M41.7,38c0.4-0.2,0.8,0,1,0.3c-0.2,0.2-0.4,0.4-0.6,0.6c-0.2-0.3-0.5-0.5-0.7-0.7
			C41.5,38.1,41.6,38,41.7,38z M45.7,37.4c1.8-0.3,3.8,0.4,4.9,1.9c-0.2,0.3-0.4,0.7-0.6,1c-0.9-1.3-2.4-2-3.9-1.9
			c-1.5,0.1-2.8,1.1-3.4,2.4c-0.4,0-0.8-0.1-1.2,0C42.2,39.1,43.8,37.7,45.7,37.4z M58.6,37.9c-0.3-0.2-0.6-0.4-0.9-0.5
			c1-1.3,3-1.3,3.9,0.1c0,0,0,0,0,0c-0.3,0.1-0.6,0.3-0.9,0.5C60.2,37.3,59.2,37.2,58.6,37.9z M60.3,38.3
			C60.3,38.3,60.3,38.4,60.3,38.3c-0.3,0.2-0.4,0.4-0.6,0.6c-0.2-0.3-0.5-0.5-0.7-0.7C59.4,37.8,60,37.8,60.3,38.3z M61.3,36.4
			c-1.3-0.9-3.2-0.6-4,0.8C57,37.1,56.7,37,56.4,37c0.7-1.2,2-2,3.3-1.9c1.3,0,2.6,0.8,3.2,2c0,0,0,0,0,0c-0.3,0.1-0.6,0.1-0.9,0.3
			C61.9,36.9,61.6,36.6,61.3,36.4z M59.4,39.3c-0.1,0.1-0.2,0.3-0.3,0.4c-0.1,0.2-0.2,0.4-0.3,0.6c-0.9-1.3-2.4-2-3.9-1.9
			c-1.5,0.1-2.8,1.1-3.4,2.4c-0.4,0-0.8-0.1-1.2,0c0.7-1.8,2.3-3.1,4.2-3.4C56.4,37.1,58.3,37.9,59.4,39.3z M64.7,41.5
			c-0.6-0.3-1.4-0.1-1.7,0.5c-0.3-0.2-0.6-0.4-0.9-0.5c0.9-1.4,3-1.5,4-0.1c-0.3,0.1-0.6,0.3-0.9,0.5C65.1,41.7,64.9,41.6,64.7,41.5
			z M64.8,42.1c-0.3,0.2-0.5,0.5-0.8,0.7c-0.1-0.1-0.1-0.1-0.2-0.2c-0.1-0.2-0.3-0.3-0.5-0.4C63.7,41.7,64.4,41.7,64.8,42.1z
			 M61.7,41.2c-0.3-0.1-0.6-0.2-0.9-0.3c0.2-0.4,0.5-0.8,0.9-1.1c1.8-1.5,4.6-1,5.7,1.1c0,0,0,0,0,0c-0.3,0.1-0.6,0.1-0.9,0.2
			C65.4,39.4,62.8,39.4,61.7,41.2z M63.7,43.3c-0.2,0.3-0.4,0.7-0.6,1c-0.8-1.2-2.2-2-3.7-1.9c-1.5,0.1-2.9,1-3.6,2.4
			c-0.4,0-0.8,0-1.2,0c0.8-2.2,3-3.6,5.3-3.5C61.4,41.4,62.8,42.1,63.7,43.3z M64.7,49.4c-0.6-0.3-1.4-0.1-1.7,0.5
			c-0.3-0.2-0.6-0.4-0.9-0.5c0.9-1.4,3-1.5,4-0.1c-0.3,0.1-0.6,0.3-0.9,0.5C65.1,49.6,64.9,49.5,64.7,49.4z M64.8,50
			c-0.2,0.2-0.4,0.4-0.6,0.6c-0.1,0.1-0.1,0.1-0.2,0.2c-0.2-0.2-0.4-0.4-0.6-0.6C63.7,49.6,64.4,49.6,64.8,50z M61.7,49.1
			c-0.3-0.1-0.6-0.2-0.9-0.3c0.2-0.4,0.5-0.8,0.9-1.1c1.8-1.5,4.6-1,5.7,1.1c0,0,0,0,0,0c-0.3,0.1-0.6,0.1-0.9,0.2
			C65.4,47.3,62.8,47.3,61.7,49.1z M63.7,51.2c-0.2,0.3-0.4,0.7-0.6,1c-0.8-1.3-2.3-2-3.8-1.9c-1.5,0.1-2.8,1-3.5,2.4
			c-0.4,0-0.8,0-1.2,0c0.8-2.2,3-3.6,5.3-3.5C61.4,49.3,62.8,50,63.7,51.2z M55.9,57.2c-0.6-0.3-1.4-0.1-1.7,0.5
			c-0.3-0.2-0.6-0.4-0.9-0.5c0.9-1.4,3-1.5,4-0.1c-0.3,0.1-0.6,0.3-0.9,0.5C56.3,57.5,56.1,57.3,55.9,57.2z M56,57.9
			c-0.3,0.2-0.5,0.5-0.8,0.7c-0.1-0.1-0.2-0.2-0.3-0.4c-0.1-0.1-0.2-0.2-0.3-0.3C54.9,57.5,55.6,57.5,56,57.9z M52.9,57
			c-0.3-0.1-0.6-0.2-0.9-0.3c0.2-0.4,0.5-0.8,0.9-1.1c1.8-1.5,4.6-1,5.7,1.1c0,0,0,0,0,0c-0.3,0.1-0.6,0.1-0.9,0.2
			C56.6,55.1,53.9,55.2,52.9,57z M55,54.2c-1.5,0.1-2.8,1.1-3.4,2.4c-0.4,0-0.8-0.1-1.2,0c0.7-1.8,2.3-3.1,4.1-3.4
			c1.8-0.3,3.8,0.4,4.9,1.9c-0.1,0.1-0.2,0.3-0.3,0.4c-0.1,0.2-0.2,0.4-0.3,0.6C58,54.8,56.5,54.1,55,54.2z M52.8,53.2
			C52.8,53.2,52.8,53.2,52.8,53.2c-0.3,0.2-0.6,0.3-0.9,0.5c-0.5-0.7-1.6-0.8-2.1-0.1c-0.3-0.2-0.6-0.4-0.9-0.5
			C49.8,51.8,51.9,51.9,52.8,53.2z M48.4,53c-0.3-0.1-0.6-0.2-0.9-0.2c0.7-1.2,2-2,3.3-1.9c1.3,0,2.6,0.8,3.2,2c0,0,0,0,0,0
			c-0.3,0.1-0.6,0.1-0.9,0.3c-0.2-0.3-0.5-0.6-0.8-0.8C51.2,51.3,49.3,51.6,48.4,53z M51.5,54.1C51.5,54.1,51.5,54.1,51.5,54.1
			c-0.3,0.2-0.4,0.4-0.6,0.6c-0.2-0.3-0.5-0.5-0.7-0.7C50.6,53.6,51.2,53.6,51.5,54.1z M59,54c0.4-0.4,1-0.4,1.3,0.1
			c0,0-0.1,0-0.1,0.1c-0.2,0.2-0.4,0.3-0.5,0.5C59.5,54.4,59.3,54.2,59,54z M58.6,53.7c-0.3-0.2-0.6-0.4-0.9-0.5
			c1-1.3,3-1.3,3.9,0.1c0,0,0,0,0,0c-0.3,0.1-0.6,0.3-0.9,0.5C60.2,53.1,59.2,53,58.6,53.7z M61.3,52.2c-1.3-0.9-3.2-0.6-4,0.8
			c-0.3-0.1-0.6-0.2-0.9-0.2c0.7-1.2,2-2,3.3-1.9c1.3,0,2.6,0.8,3.2,2c0,0,0,0,0,0c-0.3,0.1-0.6,0.1-0.9,0.3
			C61.9,52.7,61.6,52.4,61.3,52.2z M57.3,49.2c-0.3,0.1-0.6,0.3-0.9,0.5c-0.1-0.2-0.3-0.3-0.5-0.4c-0.6-0.3-1.4-0.1-1.7,0.5
			c-0.3-0.2-0.6-0.4-0.9-0.5C54.2,47.9,56.3,47.8,57.3,49.2z M52.9,49.1c-0.3-0.1-0.6-0.2-0.9-0.3c0.2-0.4,0.5-0.8,0.9-1.1
			c1.8-1.5,4.6-1,5.7,1.1c0,0,0,0,0,0c-0.3,0.1-0.6,0.1-0.9,0.2C56.6,47.3,53.9,47.3,52.9,49.1z M56,50c-0.2,0.2-0.4,0.4-0.6,0.6
			c-0.1,0.1-0.1,0.1-0.2,0.2c-0.2-0.2-0.4-0.4-0.6-0.6C54.9,49.6,55.6,49.6,56,50z M58.8,48.2c-0.8-1.3-2.3-2-3.8-1.9
			c-1.5,0.1-2.9,1.1-3.5,2.4c-0.4,0-0.8-0.1-1.2,0c0.7-1.8,2.3-3.1,4.2-3.4c1.8-0.3,3.7,0.4,4.9,1.9c-0.1,0.1-0.2,0.3-0.3,0.4
			C59,47.8,58.9,48,58.8,48.2z M52.8,45.3C52.8,45.4,52.8,45.4,52.8,45.3c-0.3,0.2-0.6,0.3-0.9,0.5c-0.5-0.7-1.6-0.8-2.1-0.1
			c-0.3-0.2-0.6-0.4-0.9-0.5C49.8,43.9,51.9,44,52.8,45.3z M48.4,45.1c-0.3-0.1-0.6-0.2-0.9-0.2c0.6-1.2,1.9-1.9,3.2-1.9
			c1.4,0,2.7,0.8,3.3,2c0,0,0,0,0,0c-0.3,0.1-0.6,0.1-0.9,0.3c-0.2-0.3-0.5-0.6-0.8-0.8C51.2,43.4,49.3,43.7,48.4,45.1z M51.5,46.2
			C51.5,46.2,51.5,46.2,51.5,46.2c-0.3,0.2-0.4,0.4-0.6,0.6c-0.2-0.3-0.5-0.5-0.7-0.7C50.6,45.7,51.2,45.7,51.5,46.2z M59,46.1
			c0.4-0.4,1-0.4,1.3,0.1c0,0-0.1,0-0.1,0.1c-0.2,0.2-0.4,0.3-0.5,0.5C59.5,46.5,59.3,46.3,59,46.1z M58.6,45.8
			c-0.3-0.2-0.6-0.4-0.9-0.5c1-1.3,3-1.3,3.9,0.1c0,0,0,0,0,0c-0.3,0.1-0.6,0.3-0.9,0.5C60.2,45.2,59.2,45.1,58.6,45.8z M61.3,44.3
			c-1.3-0.9-3.2-0.6-4,0.8c-0.3-0.1-0.6-0.2-0.9-0.2c0.6-1.2,1.9-1.9,3.2-1.9c1.4,0,2.7,0.8,3.3,2c0,0,0,0,0,0
			c-0.3,0.1-0.6,0.1-0.9,0.3C61.9,44.8,61.6,44.5,61.3,44.3z M57.3,41.3c-0.3,0.1-0.6,0.3-0.9,0.5c-0.1-0.2-0.3-0.3-0.5-0.4
			c-0.6-0.3-1.4-0.1-1.7,0.5c-0.3-0.2-0.6-0.4-0.9-0.5C54.2,40,56.3,39.9,57.3,41.3z M52.9,41.2C52.6,41.1,52.3,41,52,41
			c0.2-0.4,0.5-0.8,0.9-1.1c1.8-1.5,4.6-1,5.7,1.1c0,0,0,0,0,0c-0.3,0.1-0.6,0.1-0.9,0.2C56.6,39.4,53.9,39.4,52.9,41.2z M56,42.1
			c-0.3,0.2-0.5,0.5-0.8,0.7c-0.1-0.1-0.2-0.2-0.3-0.4c-0.1-0.1-0.2-0.2-0.3-0.3C54.9,41.7,55.6,41.7,56,42.1z M51.5,38.3
			C51.5,38.3,51.5,38.4,51.5,38.3c-0.3,0.2-0.4,0.4-0.6,0.6c-0.2-0.3-0.5-0.5-0.7-0.7C50.6,37.8,51.2,37.8,51.5,38.3z M49.8,37.9
			c-0.3-0.2-0.6-0.4-0.9-0.5c1-1.3,3-1.3,3.9,0.1c0,0,0,0,0,0c-0.3,0.1-0.6,0.3-0.9,0.5C51.4,37.3,50.4,37.2,49.8,37.9z M54.1,37
			c-0.3,0.1-0.6,0.1-0.9,0.3c-1.1-1.8-3.7-1.8-4.8-0.1c-0.3-0.1-0.6-0.2-0.9-0.2c0.2-0.4,0.5-0.8,0.9-1.1C50.2,34.4,53,35,54.1,37
			C54.1,37,54.1,37,54.1,37z M46.5,38.9c1.4,0,2.7,0.8,3.3,2c0,0,0,0,0,0c-0.3,0.1-0.6,0.1-0.9,0.2c-1.1-1.8-3.8-1.8-4.9,0.1
			c-0.3-0.1-0.5-0.2-0.8-0.2c0,0,0,0,0,0C43.8,39.8,45.1,39,46.5,38.9z M48.5,41.3c-0.3,0.1-0.6,0.3-0.9,0.5
			c-0.6-0.7-1.7-0.7-2.2,0.1c-0.3-0.2-0.6-0.4-0.9-0.5C45.4,40,47.5,39.9,48.5,41.3z M47.2,42.1c-0.3,0.2-0.5,0.5-0.8,0.7
			c-0.1-0.1-0.2-0.2-0.3-0.4c-0.1-0.1-0.2-0.2-0.3-0.3C46.1,41.7,46.8,41.7,47.2,42.1z M50.5,41.3c1.7-0.1,3.3,0.6,4.4,1.9
			c-0.2,0.3-0.4,0.7-0.6,1c-0.8-1.2-2.2-2-3.7-1.9c-1.5,0.1-2.9,1-3.6,2.4c-0.4,0-0.8,0-1.2,0c0.1-0.4,0.3-0.7,0.5-1.1
			C47.3,42.3,48.9,41.4,50.5,41.3z M46.5,46.8c1.4,0,2.7,0.8,3.3,2c0,0,0,0,0,0c-0.3,0.1-0.6,0.1-0.9,0.2c-1.1-1.8-3.8-1.8-4.9,0.1
			c-0.3-0.1-0.5-0.2-0.8-0.2c0,0,0,0,0,0C43.8,47.6,45.1,46.9,46.5,46.8z M48.5,49.2c-0.3,0.1-0.6,0.3-0.9,0.5
			c-0.6-0.7-1.7-0.7-2.2,0.1c-0.3-0.2-0.6-0.4-0.9-0.5C45.4,47.9,47.5,47.8,48.5,49.2z M47.2,50c-0.3,0.2-0.5,0.5-0.8,0.7
			c-0.1-0.1-0.2-0.2-0.3-0.4c-0.1-0.1-0.2-0.2-0.3-0.3C46.1,49.6,46.8,49.6,47.2,50z M50.5,49.2c1.7-0.1,3.3,0.6,4.4,1.9
			c-0.2,0.3-0.4,0.7-0.6,1c-0.8-1.3-2.3-2-3.8-1.9c-1.5,0.1-2.8,1-3.5,2.4c-0.4,0-0.8,0-1.2,0c0.1-0.4,0.3-0.7,0.5-1.1
			C47.3,50.2,48.9,49.3,50.5,49.2z M46.5,54.7c1.4,0,2.7,0.8,3.3,2c0,0,0,0,0,0c-0.3,0.1-0.6,0.1-0.9,0.2c-1.1-1.8-3.8-1.7-4.9,0.1
			c-0.3-0.1-0.5-0.2-0.8-0.2c0,0,0,0,0,0C43.8,55.5,45.1,54.7,46.5,54.7z M48.5,57.1c-0.3,0.1-0.6,0.3-0.9,0.5
			c-0.6-0.7-1.7-0.7-2.2,0.1c-0.3-0.2-0.6-0.4-0.9-0.5C45.4,55.8,47.5,55.7,48.5,57.1z M47.2,57.9c-0.3,0.2-0.5,0.5-0.8,0.7
			c-0.1-0.1-0.2-0.2-0.3-0.4c-0.1-0.1-0.2-0.2-0.3-0.3C46.1,57.5,46.8,57.5,47.2,57.9z M64.7,57.2c-0.6-0.3-1.4-0.1-1.7,0.5
			c-0.3-0.2-0.6-0.4-0.9-0.5c0.9-1.4,3-1.5,4-0.1c-0.3,0.1-0.6,0.3-0.9,0.5C65.1,57.5,64.9,57.3,64.7,57.2z M64.8,57.9
			c-0.3,0.2-0.5,0.5-0.8,0.7c-0.1-0.1-0.1-0.1-0.2-0.2c-0.1-0.2-0.3-0.3-0.5-0.4C63.7,57.5,64.4,57.5,64.8,57.9z M61.7,57
			c-0.3-0.1-0.6-0.2-0.9-0.3c0.2-0.4,0.5-0.8,0.9-1.1c1.8-1.5,4.6-1,5.7,1.1c0,0,0,0,0,0c-0.3,0.1-0.6,0.1-0.9,0.2
			C65.4,55.1,62.8,55.2,61.7,57z M67.7,56.1c-0.9-1.3-2.4-2-3.9-1.9c-1.5,0.1-2.8,1.1-3.4,2.4c-0.4,0-0.8-0.1-1.2,0
			c0.7-1.8,2.3-3.1,4.1-3.4c1.8-0.3,3.8,0.4,4.9,1.9c-0.1,0.1-0.2,0.3-0.3,0.4C67.9,55.7,67.7,55.9,67.7,56.1z M67.8,54
			c0.4-0.4,1-0.4,1.3,0.1c0,0-0.1,0-0.1,0.1c-0.2,0.2-0.4,0.3-0.5,0.5C68.3,54.4,68.1,54.2,67.8,54z M67.4,53.7
			c-0.3-0.2-0.6-0.4-0.9-0.5c1-1.3,3-1.3,3.9,0.1c0,0,0,0,0,0c-0.3,0.1-0.6,0.3-0.9,0.5C69,53.1,68,53,67.4,53.7z M70.1,52.2
			c-1.3-0.9-3.2-0.6-4,0.8c-0.3-0.1-0.6-0.2-0.9-0.2c0.7-1.2,2-2,3.3-1.9c1.3,0,2.6,0.8,3.2,2c0,0,0,0,0,0c-0.3,0.1-0.6,0.1-0.9,0.3
			C70.7,52.7,70.4,52.4,70.1,52.2z M67.7,48.2c-0.8-1.3-2.3-2-3.8-1.9c-1.5,0.1-2.9,1.1-3.5,2.4c-0.4,0-0.8-0.1-1.2,0
			c0.7-1.8,2.3-3.1,4.2-3.4c1.8-0.3,3.7,0.4,4.9,1.9c-0.1,0.1-0.2,0.3-0.3,0.4C67.9,47.8,67.7,48,67.7,48.2z M67.8,46.1
			c0.4-0.4,1-0.4,1.3,0.1c0,0-0.1,0-0.1,0.1c-0.2,0.2-0.4,0.3-0.5,0.5C68.3,46.5,68.1,46.3,67.8,46.1z M67.4,45.8
			c-0.3-0.2-0.6-0.4-0.9-0.5c1-1.3,3-1.3,3.9,0.1c0,0,0,0,0,0c-0.3,0.1-0.6,0.3-0.9,0.5C69,45.2,68,45.1,67.4,45.8z M70.1,44.3
			c-1.3-0.9-3.2-0.6-4,0.8c-0.3-0.1-0.6-0.2-0.9-0.2c0.6-1.2,1.9-1.9,3.2-1.9c1.4,0,2.7,0.8,3.3,2c0,0,0,0,0,0
			c-0.3,0.1-0.6,0.1-0.9,0.3C70.7,44.8,70.4,44.5,70.1,44.3z M67.7,40.3c-0.9-1.3-2.4-2-3.9-1.9c-1.5,0.1-2.8,1.1-3.4,2.4
			c-0.4,0-0.8-0.1-1.2,0c0.7-1.8,2.3-3.1,4.2-3.4c1.8-0.3,3.7,0.4,4.9,1.9c-0.1,0.1-0.2,0.3-0.3,0.4C67.9,39.9,67.7,40.1,67.7,40.3z
			 M67.8,38.2c0.4-0.4,1-0.4,1.3,0.1c0,0-0.1,0-0.1,0.1c-0.2,0.2-0.4,0.3-0.5,0.5C68.3,38.7,68.1,38.4,67.8,38.2z M67.4,37.9
			c-0.3-0.2-0.6-0.4-0.9-0.5c1-1.3,3-1.3,3.9,0.1c0,0,0,0,0,0c-0.3,0.1-0.6,0.3-0.9,0.5C69,37.3,68,37.2,67.4,37.9z M70.1,36.4
			c-1.3-0.9-3.2-0.6-4,0.8c-0.3-0.1-0.6-0.2-0.9-0.2c0.7-1.2,2-2,3.3-1.9c1.3,0,2.6,0.8,3.2,2c0,0,0,0,0,0c-0.3,0.1-0.6,0.1-0.9,0.3
			C70.7,36.9,70.4,36.6,70.1,36.4z M64.8,34.3c-0.3,0.2-0.5,0.5-0.8,0.7c-0.1-0.1-0.2-0.2-0.3-0.4c-0.1-0.1-0.2-0.2-0.3-0.3
			C63.7,33.9,64.4,33.8,64.8,34.3z M63,34.1c-0.3-0.2-0.6-0.4-0.9-0.5c0.9-1.4,3-1.5,4-0.1c-0.3,0.1-0.6,0.3-0.9,0.5
			c-0.1-0.2-0.3-0.3-0.5-0.4C64.1,33.3,63.4,33.5,63,34.1z M67.4,33c-0.3,0.1-0.6,0.1-0.9,0.2c-1.1-1.8-3.8-1.8-4.9,0.1
			c-0.3-0.1-0.6-0.2-0.9-0.3c0.2-0.4,0.5-0.8,0.9-1.1C63.5,30.4,66.3,31,67.4,33C67.4,33,67.4,33,67.4,33z M63.7,35.4
			c-0.2,0.3-0.4,0.7-0.6,1c-0.8-1.3-2.3-2-3.8-1.9c-1.5,0.1-2.8,1-3.5,2.4c-0.4,0-0.8,0-1.2,0c0.8-2.2,3-3.6,5.3-3.5
			C61.4,33.5,62.8,34.3,63.7,35.4z M56,34.3c-0.3,0.2-0.5,0.5-0.8,0.7c-0.1-0.1-0.2-0.2-0.3-0.4c-0.1-0.1-0.2-0.2-0.3-0.3
			C54.9,33.9,55.6,33.8,56,34.3z M54.2,34.1c-0.3-0.2-0.6-0.4-0.9-0.5c0.9-1.4,3-1.5,4-0.1c-0.3,0.1-0.6,0.3-0.9,0.5
			C55.8,33.3,54.7,33.3,54.2,34.1z M58.6,33c-0.3,0.1-0.6,0.1-0.9,0.2c-1.1-1.8-3.8-1.8-4.9,0.1c-0.3-0.1-0.6-0.2-0.9-0.3
			c0.2-0.4,0.5-0.8,0.9-1.1C54.7,30.4,57.5,31,58.6,33C58.6,33,58.6,33,58.6,33z M54.9,35.4c-0.2,0.3-0.4,0.7-0.6,1
			c-0.8-1.3-2.3-2-3.8-1.9c-1.5,0.1-2.8,1-3.5,2.4c-0.4,0-0.8,0-1.2,0c0.8-2.2,3-3.6,5.3-3.5C52.6,33.5,54,34.3,54.9,35.4z
			 M47.2,34.3c-0.3,0.2-0.5,0.5-0.8,0.7c-0.1-0.1-0.2-0.2-0.3-0.4c-0.1-0.1-0.2-0.2-0.3-0.3C46.1,33.9,46.8,33.8,47.2,34.3z
			 M45.4,34.1c-0.3-0.2-0.6-0.4-0.9-0.5c0.9-1.4,3-1.5,4-0.1c-0.3,0.1-0.6,0.3-0.9,0.5C47,33.3,45.9,33.3,45.4,34.1z M49.8,33
			c-0.3,0.1-0.6,0.1-0.9,0.2c-1.1-1.8-3.8-1.7-4.9,0.1c-0.3-0.1-0.6-0.2-0.9-0.3c0.2-0.4,0.5-0.8,0.9-1.1C45.9,30.4,48.7,31,49.8,33
			C49.8,33,49.8,33,49.8,33z M37.7,38.9c1.4,0,2.7,0.8,3.3,2c0,0,0,0,0,0c-0.3,0.1-0.6,0.1-0.9,0.2c-1.1-1.8-3.8-1.8-4.9,0.1
			C35,41.1,34.7,41,34.4,41c0,0,0,0,0,0C35,39.8,36.3,39,37.7,38.9z M39.7,41.3c-0.3,0.1-0.6,0.3-0.9,0.5c-0.6-0.7-1.7-0.7-2.2,0.1
			c-0.3-0.2-0.6-0.4-0.9-0.5C36.6,40,38.7,39.9,39.7,41.3z M38.4,42.1c-0.3,0.2-0.5,0.5-0.8,0.7c-0.1-0.1-0.2-0.2-0.3-0.4
			c-0.1-0.1-0.2-0.2-0.3-0.3C37.3,41.7,38,41.7,38.4,42.1z M41.7,41.3c1.7-0.1,3.3,0.6,4.4,1.9c-0.2,0.3-0.4,0.7-0.6,1
			c-0.8-1.2-2.3-2-3.8-1.9c-1.5,0.1-2.9,1-3.5,2.4c-0.4,0-0.8,0-1.2,0c0.1-0.4,0.3-0.7,0.5-1.1C38.5,42.3,40,41.4,41.7,41.3z
			 M37.7,46.8c1.4,0,2.7,0.8,3.3,2c0,0,0,0,0,0c-0.3,0.1-0.6,0.1-0.9,0.2c-1.1-1.8-3.8-1.8-4.9,0.1c-0.3-0.1-0.5-0.2-0.8-0.2
			c0,0,0,0,0,0C35,47.6,36.3,46.8,37.7,46.8z M39.7,49.2c-0.3,0.1-0.6,0.3-0.9,0.5c-0.6-0.7-1.7-0.7-2.2,0.1
			c-0.3-0.2-0.6-0.4-0.9-0.5C36.6,47.9,38.7,47.8,39.7,49.2z M38.4,50c-0.3,0.2-0.5,0.5-0.8,0.7c-0.1-0.1-0.2-0.2-0.3-0.4
			c-0.1-0.1-0.2-0.2-0.3-0.3C37.3,49.6,38,49.6,38.4,50z M41.7,49.2c1.7-0.1,3.3,0.6,4.4,1.9c-0.2,0.3-0.4,0.7-0.6,1
			c-0.8-1.3-2.3-2-3.8-1.9c-1.5,0.1-2.8,1-3.5,2.4c-0.4,0-0.8,0-1.2,0c0.1-0.4,0.3-0.7,0.5-1.1C38.5,50.2,40,49.3,41.7,49.2z
			 M37.7,54.7c1.4,0,2.7,0.8,3.3,2c0,0,0,0,0,0c-0.3,0.1-0.6,0.1-0.9,0.2c-1.1-1.8-3.8-1.7-4.9,0.1c-0.3-0.1-0.5-0.2-0.8-0.2
			c0,0,0,0,0,0C35,55.5,36.3,54.7,37.7,54.7z M39.7,57.1c-0.3,0.1-0.6,0.3-0.9,0.5c-0.6-0.7-1.7-0.7-2.2,0.1
			c-0.3-0.2-0.6-0.4-0.9-0.5C36.6,55.8,38.7,55.7,39.7,57.1z M38.4,57.9c-0.3,0.2-0.5,0.5-0.8,0.7c-0.2-0.2-0.4-0.4-0.6-0.6
			C37.3,57.5,38,57.5,38.4,57.9z M41.7,57.1c1.7-0.1,3.3,0.6,4.4,1.9c-0.2,0.3-0.4,0.7-0.6,1c-0.8-1.3-2.3-2-3.8-1.9
			c-1.5,0.1-2.8,1-3.5,2.4c-0.4,0-0.8,0-1.2,0c0.1-0.4,0.3-0.7,0.5-1.1C38.5,58.1,40,57.2,41.7,57.1z M41,61.6
			c-0.3-0.2-0.6-0.4-0.9-0.5c1-1.3,3-1.3,3.9,0.1c0,0,0,0,0,0c-0.3,0.1-0.6,0.3-0.9,0.5C42.6,60.9,41.5,60.9,41,61.6z M42.7,62
			C42.7,62,42.7,62,42.7,62c-0.3,0.2-0.4,0.4-0.6,0.6c-0.2-0.3-0.5-0.5-0.7-0.7C41.8,61.4,42.4,61.5,42.7,62z M43.7,60.1
			c-1.3-0.9-3.2-0.6-4,0.8c-0.3-0.1-0.6-0.2-0.9-0.2c0.7-1.2,2-2,3.3-1.9c1.3,0,2.6,0.8,3.2,2c0,0,0,0,0,0c-0.3,0.1-0.6,0.1-0.9,0.3
			C44.2,60.6,44,60.3,43.7,60.1z M76.6,61.8c0.4-0.4,1-0.4,1.3,0.1c0,0-0.1,0-0.1,0.1c-0.2,0.2-0.4,0.3-0.5,0.5
			C77.1,62.3,76.9,62.1,76.6,61.8z M76.2,61.6c-0.3-0.2-0.6-0.4-0.9-0.5c1-1.3,3-1.3,3.9,0.1c0,0,0,0,0,0c-0.3,0.1-0.6,0.3-0.9,0.5
			C77.9,60.9,76.8,60.9,76.2,61.6z M78.9,60.1c-1.3-0.9-3.2-0.6-4,0.8c-0.3-0.1-0.6-0.2-0.9-0.2c0.7-1.2,2-2,3.3-1.9
			c1.3,0,2.6,0.8,3.2,2c0,0,0,0,0,0c-0.3,0.1-0.6,0.1-0.9,0.3C79.5,60.6,79.2,60.3,78.9,60.1z M76.5,56.1c-0.9-1.3-2.4-2-3.9-1.9
			c-1.5,0.1-2.8,1.1-3.4,2.4c-0.4,0-0.8-0.1-1.2,0c0.7-1.8,2.3-3.1,4.1-3.4c1.8-0.3,3.8,0.4,4.9,1.9c-0.1,0.1-0.2,0.3-0.3,0.4
			C76.7,55.7,76.6,55.9,76.5,56.1z M76.6,54c0.4-0.4,1-0.4,1.3,0.1c0,0-0.1,0-0.1,0.1c-0.2,0.2-0.4,0.3-0.5,0.5
			C77.1,54.4,76.9,54.2,76.6,54z M76.2,53.7c-0.3-0.2-0.6-0.4-0.9-0.5c1-1.3,3-1.3,3.9,0.1c0,0,0,0,0,0c-0.3,0.1-0.6,0.3-0.9,0.5
			C77.9,53.1,76.8,53,76.2,53.7z M78.9,52.2c-1.3-0.9-3.2-0.6-4,0.8c-0.3-0.1-0.6-0.2-0.9-0.2c0.7-1.2,2-2,3.3-1.9
			c1.3,0,2.6,0.8,3.2,2c0,0,0,0,0,0c-0.3,0.1-0.6,0.1-0.9,0.3C79.5,52.7,79.2,52.4,78.9,52.2z M76.5,48.2c-0.8-1.3-2.3-2-3.8-1.9
			c-1.5,0.1-2.9,1.1-3.5,2.4c-0.4,0-0.8-0.1-1.2,0c0.7-1.8,2.3-3.1,4.2-3.4c1.8-0.3,3.7,0.4,4.9,1.9c-0.1,0.1-0.2,0.3-0.3,0.4
			C76.7,47.8,76.6,48,76.5,48.2z M76.6,46.1c0.4-0.4,1-0.4,1.3,0.1c0,0-0.1,0-0.1,0.1c-0.2,0.2-0.4,0.3-0.5,0.5
			C77.1,46.5,76.9,46.3,76.6,46.1z M76.2,45.8c-0.3-0.2-0.6-0.4-0.9-0.5c1-1.3,3-1.3,3.9,0.1c0,0,0,0,0,0c-0.3,0.1-0.6,0.3-0.9,0.5
			C77.9,45.2,76.8,45.1,76.2,45.8z M78.9,44.3c-1.3-0.9-3.2-0.6-4,0.8c-0.3-0.1-0.6-0.2-0.9-0.2c0.6-1.2,1.9-1.9,3.2-1.9
			c1.4,0,2.7,0.8,3.3,2c0,0,0,0,0,0C80.2,45,80,45,79.7,45.1C79.5,44.8,79.2,44.5,78.9,44.3z M76.5,40.3c-0.9-1.3-2.4-2-3.9-1.9
			c-1.5,0.1-2.8,1.1-3.4,2.4c-0.4,0-0.8-0.1-1.2,0c0.7-1.8,2.3-3.1,4.2-3.4c1.8-0.3,3.7,0.4,4.9,1.9c-0.1,0.1-0.2,0.3-0.3,0.4
			C76.7,39.9,76.6,40.1,76.5,40.3z M76.6,38.2c0.4-0.4,1-0.4,1.3,0.1c0,0-0.1,0-0.1,0.1c-0.2,0.2-0.4,0.3-0.5,0.5
			C77.1,38.7,76.9,38.4,76.6,38.2z M76.2,37.9c-0.3-0.2-0.6-0.4-0.9-0.5c1-1.3,3-1.3,3.9,0.1c0,0,0,0,0,0c-0.3,0.1-0.6,0.3-0.9,0.5
			C77.9,37.3,76.8,37.2,76.2,37.9z M78.9,36.4c-1.3-0.9-3.2-0.6-4,0.8C74.6,37.1,74.3,37,74,37c0.7-1.2,2-2,3.3-1.9
			c1.3,0,2.6,0.8,3.2,2c0,0,0,0,0,0c-0.3,0.1-0.6,0.1-0.9,0.3C79.5,36.9,79.2,36.6,78.9,36.4z M69.2,30.4
			C69.1,30.4,69.1,30.5,69.2,30.4c-0.3,0.2-0.4,0.4-0.6,0.6c-0.2-0.3-0.5-0.5-0.7-0.7C68.2,29.9,68.9,30,69.2,30.4z M67.4,30
			c-0.3-0.2-0.6-0.4-0.9-0.5c1-1.3,3-1.3,3.9,0.1c0,0,0,0,0,0c-0.3,0.1-0.6,0.3-0.9,0.5C69,29.4,68,29.3,67.4,30z M71.7,29.1
			c-0.3,0.1-0.6,0.1-0.9,0.3c-1.1-1.8-3.7-1.8-4.8-0.1c-0.3-0.1-0.6-0.2-0.9-0.2c0.6-1.2,1.9-1.9,3.2-1.9
			C69.8,27.1,71.1,27.9,71.7,29.1C71.7,29.1,71.7,29.1,71.7,29.1z M68.2,31.4c-0.2,0.3-0.4,0.7-0.6,1c-0.9-1.3-2.4-2-3.9-1.9
			c-1.5,0.1-2.8,1.1-3.4,2.4c-0.4,0-0.8-0.1-1.2,0c0.8-2.2,3-3.6,5.3-3.5C65.9,29.6,67.3,30.3,68.2,31.4z M60.3,30.4
			c-0.2,0.2-0.4,0.4-0.6,0.6c-0.1-0.1-0.2-0.2-0.3-0.4c-0.1-0.1-0.3-0.2-0.4-0.4C59.4,29.9,60,30,60.3,30.4z M58.6,30
			c-0.3-0.2-0.6-0.4-0.9-0.5c0.2-0.3,0.6-0.6,0.9-0.8c1.1-0.5,2.3-0.1,3,0.9c-0.3,0.2-0.6,0.3-0.9,0.5C60.2,29.4,59.2,29.3,58.6,30z
			 M62.9,29.1c-0.3,0.1-0.6,0.1-0.9,0.3c-1.1-1.8-3.7-1.8-4.8-0.1c-0.3-0.1-0.6-0.2-0.9-0.2c0.6-1.2,1.9-1.9,3.2-1.9
			C61,27.1,62.3,27.9,62.9,29.1C62.9,29.1,62.9,29.1,62.9,29.1z M59.4,31.4c-0.2,0.3-0.4,0.7-0.6,1c-0.9-1.3-2.4-2-3.9-1.9
			c-1.5,0.1-2.8,1.1-3.4,2.4c-0.4,0-0.8-0.1-1.2,0c0.8-2.2,3-3.6,5.3-3.5C57.1,29.6,58.5,30.3,59.4,31.4z M51.5,30.4
			c-0.2,0.2-0.4,0.4-0.6,0.6c-0.1-0.1-0.2-0.2-0.3-0.4c-0.1-0.1-0.3-0.2-0.4-0.4C50.6,29.9,51.2,30,51.5,30.4z M49.8,30
			c-0.3-0.2-0.6-0.4-0.9-0.5c0.2-0.3,0.6-0.6,0.9-0.8c1.1-0.5,2.3-0.1,3,0.9c-0.3,0.2-0.6,0.3-0.9,0.5C51.4,29.4,50.4,29.3,49.8,30z
			 M54.1,29.1c-0.3,0.1-0.6,0.1-0.9,0.3c-1.1-1.8-3.7-1.8-4.8-0.1c-0.3-0.1-0.6-0.2-0.9-0.2c0.6-1.2,1.9-1.9,3.2-1.9
			C52.2,27.1,53.5,27.9,54.1,29.1C54.1,29.1,54.1,29.1,54.1,29.1z M50.6,31.4c-0.2,0.3-0.4,0.7-0.6,1c-0.9-1.3-2.4-2-3.9-1.9
			c-1.5,0.1-2.8,1.1-3.4,2.4c-0.4,0-0.8-0.1-1.2,0c0.8-2.2,3-3.6,5.3-3.5C48.3,29.6,49.7,30.3,50.6,31.4z M42.7,30.4
			c-0.2,0.2-0.4,0.4-0.6,0.6c-0.1-0.1-0.2-0.2-0.3-0.4c-0.1-0.1-0.3-0.2-0.4-0.4C41.8,29.9,42.4,30,42.7,30.4z M41,30
			c-0.3-0.2-0.6-0.4-0.9-0.5c0.2-0.3,0.6-0.6,0.9-0.8c1.1-0.5,2.3-0.1,3,0.9c-0.3,0.2-0.6,0.3-0.9,0.5C42.6,29.4,41.5,29.3,41,30z
			 M45.3,29.1c-0.3,0.1-0.6,0.1-0.9,0.3c-1.1-1.8-3.7-1.8-4.8-0.1c-0.3-0.1-0.6-0.2-0.9-0.2c0.6-1.2,1.9-1.9,3.2-1.9
			C43.3,27.1,44.6,27.9,45.3,29.1C45.3,29.1,45.3,29.1,45.3,29.1z M41.8,31.4c-0.2,0.3-0.4,0.7-0.6,1c-0.8-1.3-2.3-2-3.9-1.9
			c-1.5,0.1-2.8,1.1-3.5,2.4c-0.4,0-0.8-0.1-1.2,0c0.8-2.2,3-3.6,5.3-3.5C39.5,29.6,40.9,30.3,41.8,31.4z M33.9,30.4
			c-0.2,0.2-0.4,0.4-0.6,0.6c-0.1-0.1-0.2-0.2-0.3-0.4c-0.1-0.1-0.3-0.2-0.4-0.4C32.9,29.9,33.6,30,33.9,30.4z M32.2,30
			c-0.3-0.2-0.6-0.4-0.9-0.5c0.2-0.3,0.6-0.6,0.9-0.8c1.1-0.5,2.3-0.1,3,0.9c-0.3,0.2-0.6,0.3-0.9,0.5C33.8,29.4,32.7,29.3,32.2,30z
			 M36.5,29.1c-0.3,0.1-0.6,0.1-0.9,0.3c-1.1-1.8-3.7-1.8-4.8-0.1c-0.3-0.1-0.6-0.2-0.9-0.2c0.6-1.2,1.9-1.9,3.2-1.9
			C34.5,27.1,35.8,27.9,36.5,29.1C36.5,29.1,36.5,29.1,36.5,29.1z M28.8,31.1c1.4,0,2.7,0.8,3.3,2c0,0,0,0,0,0
			c-0.3,0.1-0.6,0.1-0.9,0.2c-1.1-1.8-3.8-1.8-4.9,0.1c-0.3-0.1-0.5-0.2-0.8-0.2c0,0,0,0,0,0C26.2,31.9,27.5,31.1,28.8,31.1z
			 M30.9,33.5c-0.3,0.1-0.6,0.3-0.9,0.5c-0.6-0.7-1.7-0.7-2.2,0.1c-0.3-0.2-0.6-0.4-0.9-0.5C27.8,32.1,29.9,32.1,30.9,33.5z
			 M29.6,34.3c-0.3,0.2-0.5,0.5-0.8,0.7c-0.2-0.2-0.4-0.4-0.6-0.6C28.5,33.9,29.2,33.8,29.6,34.3z M32.9,33.5
			c1.7-0.1,3.3,0.6,4.4,1.9c-0.2,0.3-0.4,0.7-0.6,1c-0.8-1.2-2.3-2-3.8-1.9c-1.5,0.1-2.9,1-3.5,2.4c-0.4,0-0.8,0-1.2,0
			c0.1-0.4,0.3-0.7,0.5-1.1C29.7,34.5,31.2,33.5,32.9,33.5z M28.8,38.9c1.4,0,2.7,0.8,3.3,2c0,0,0,0,0,0c-0.3,0.1-0.6,0.1-0.9,0.2
			c-1.1-1.8-3.8-1.8-4.9,0.1c-0.3-0.1-0.5-0.2-0.8-0.2c0,0,0,0,0,0C26.2,39.8,27.5,39,28.8,38.9z M30.9,41.3
			c-0.3,0.1-0.6,0.3-0.9,0.5c-0.6-0.7-1.7-0.7-2.2,0.1c-0.3-0.2-0.6-0.4-0.9-0.5C27.8,40,29.9,39.9,30.9,41.3z M29.6,42.1
			c-0.3,0.2-0.5,0.5-0.8,0.7c-0.1-0.1-0.2-0.2-0.3-0.4c-0.1-0.1-0.2-0.2-0.3-0.3C28.5,41.7,29.2,41.7,29.6,42.1z M32.9,41.3
			c1.7-0.1,3.3,0.6,4.4,1.9c-0.2,0.3-0.4,0.7-0.6,1c-0.8-1.2-2.3-2-3.8-1.9c-1.5,0.1-2.9,1-3.5,2.4c-0.4,0-0.8,0-1.2,0
			c0.1-0.4,0.3-0.7,0.5-1.1C29.7,42.3,31.2,41.4,32.9,41.3z M28.8,46.8c1.4,0,2.7,0.8,3.3,2c0,0,0,0,0,0c-0.3,0.1-0.6,0.1-0.9,0.2
			c-1.1-1.8-3.8-1.7-4.9,0.1c-0.3-0.1-0.5-0.2-0.8-0.2c0,0,0,0,0,0C26.2,47.6,27.5,46.9,28.8,46.8z M30.9,49.2
			c-0.3,0.1-0.6,0.3-0.9,0.5c-0.6-0.7-1.7-0.7-2.2,0.1c-0.3-0.2-0.6-0.4-0.9-0.5C27.8,47.9,29.9,47.8,30.9,49.2z M29.6,50
			c-0.3,0.2-0.5,0.5-0.8,0.7c-0.1-0.1-0.2-0.2-0.3-0.4c-0.1-0.1-0.2-0.2-0.3-0.3C28.5,49.6,29.2,49.6,29.6,50z M32.9,49.2
			c1.7-0.1,3.3,0.6,4.4,1.9c-0.2,0.3-0.4,0.7-0.6,1c-0.8-1.2-2.3-2-3.8-1.9c-1.5,0.1-2.9,1-3.5,2.4c-0.4,0-0.8,0-1.2,0
			c0.1-0.4,0.3-0.7,0.5-1.1C29.7,50.2,31.2,49.3,32.9,49.2z M28.8,54.7c1.4,0,2.7,0.8,3.3,2c0,0,0,0,0,0c-0.3,0.1-0.6,0.1-0.9,0.2
			c-1.1-1.8-3.8-1.7-4.9,0.1c-0.3-0.1-0.5-0.2-0.8-0.2c0,0,0,0,0,0C26.2,55.5,27.5,54.7,28.8,54.7z M30.9,57.1
			c-0.3,0.1-0.6,0.3-0.9,0.5c-0.6-0.7-1.7-0.7-2.2,0.1c-0.3-0.2-0.6-0.4-0.9-0.5C27.8,55.8,29.9,55.7,30.9,57.1z M29.6,57.9
			c-0.3,0.2-0.5,0.5-0.8,0.7c-0.2-0.2-0.4-0.4-0.6-0.6C28.5,57.5,29.2,57.5,29.6,57.9z M32.9,57.1c1.7-0.1,3.3,0.6,4.4,1.9
			c-0.2,0.3-0.4,0.7-0.6,1c-0.8-1.2-2.3-2-3.8-1.9c-1.5,0.1-2.9,1-3.5,2.4c-0.4,0-0.8,0-1.2,0c0.1-0.4,0.3-0.7,0.5-1.1
			C29.7,58.1,31.2,57.2,32.9,57.1z M28.8,62.6c1.4,0,2.7,0.8,3.3,2c0,0,0,0,0,0c-0.3,0.1-0.6,0.1-0.9,0.2c-1.1-1.8-3.8-1.8-4.9,0.1
			c-0.3-0.1-0.5-0.2-0.8-0.2c0,0,0,0,0,0C26.2,63.4,27.5,62.6,28.8,62.6z M30.9,65c-0.3,0.1-0.6,0.3-0.9,0.5
			c-0.6-0.7-1.7-0.7-2.2,0.1c-0.3-0.2-0.6-0.4-0.9-0.5C27.8,63.7,29.9,63.6,30.9,65z M29.6,65.8c-0.3,0.2-0.5,0.5-0.8,0.7
			c-0.1-0.1-0.2-0.2-0.3-0.4c-0.1-0.1-0.2-0.2-0.3-0.3C28.5,65.4,29.2,65.3,29.6,65.8z M81,65.9c0.3-0.5,1-0.6,1.4-0.1
			c-0.3,0.2-0.5,0.5-0.8,0.7c-0.1-0.1-0.1-0.1-0.2-0.2C81.3,66.2,81.2,66.1,81,65.9z M82.4,65.1c-0.6-0.3-1.4-0.1-1.7,0.5
			c-0.3-0.2-0.6-0.4-0.9-0.5c0.9-1.4,3-1.5,4-0.1c-0.3,0.1-0.6,0.3-0.9,0.5C82.7,65.3,82.5,65.2,82.4,65.1z M79.3,64.9
			c-0.3-0.1-0.6-0.2-0.9-0.3c0.2-0.4,0.5-0.8,0.9-1.1c1.8-1.5,4.6-1,5.7,1.1c0,0,0,0,0,0c-0.3,0.1-0.6,0.1-0.9,0.2
			C83.1,63,80.4,63.1,79.3,64.9z M81.4,62.1c-1.5,0.1-2.8,1.1-3.4,2.4c-0.4,0-0.8-0.1-1.2,0c0.7-1.8,2.3-3.1,4.2-3.4
			c1.8-0.3,3.7,0.4,4.9,1.9c-0.1,0.1-0.2,0.3-0.3,0.4c-0.1,0.2-0.2,0.4-0.3,0.6C84.4,62.7,82.9,62,81.4,62.1z M85.4,61.8
			c0.4-0.4,1-0.4,1.3,0.1c0,0-0.1,0-0.1,0.1c-0.2,0.2-0.4,0.3-0.5,0.5C85.9,62.3,85.7,62.1,85.4,61.8z M85,61.6
			c-0.3-0.2-0.6-0.4-0.9-0.5c1-1.3,3-1.3,3.9,0.1c0,0,0,0,0,0c-0.3,0.1-0.6,0.3-0.9,0.5C86.7,60.9,85.6,60.9,85,61.6z M87.7,60.1
			c-1.3-0.9-3.2-0.6-4,0.8c-0.3-0.1-0.6-0.2-0.9-0.2c0.7-1.2,1.9-1.9,3.3-1.9c1.4,0,2.6,0.8,3.3,2c-0.3,0.1-0.6,0.1-0.9,0.3
			C88.3,60.6,88,60.3,87.7,60.1z M85.3,56.1c-0.9-1.3-2.4-2-3.9-1.9c-1.5,0.1-2.8,1.1-3.4,2.4c-0.4,0-0.8-0.1-1.2,0
			c0.7-1.8,2.3-3.1,4.1-3.4c1.8-0.3,3.8,0.4,4.9,1.9c-0.1,0.1-0.2,0.3-0.3,0.4C85.5,55.7,85.4,55.9,85.3,56.1z M85.4,54
			c0.4-0.4,1-0.4,1.3,0.1c0,0-0.1,0-0.1,0.1c-0.2,0.2-0.4,0.3-0.5,0.5C85.9,54.4,85.7,54.2,85.4,54z M85,53.7
			c-0.3-0.2-0.6-0.4-0.9-0.5c1-1.3,3-1.3,3.9,0.1c0,0,0,0,0,0c-0.3,0.1-0.6,0.3-0.9,0.5C86.7,53.1,85.6,53,85,53.7z M87.7,52.2
			c-1.3-0.9-3.2-0.6-4,0.8c-0.3-0.1-0.6-0.2-0.9-0.2c0.7-1.2,1.9-1.9,3.3-1.9c1.4,0,2.6,0.8,3.3,2c-0.3,0.1-0.6,0.1-0.9,0.3
			C88.3,52.7,88,52.4,87.7,52.2z M85.3,48.2c-0.8-1.3-2.3-2-3.8-1.9c-1.5,0.1-2.9,1.1-3.5,2.4c-0.4,0-0.8-0.1-1.2,0
			c0.7-1.8,2.3-3.1,4.2-3.4c1.8-0.3,3.7,0.4,4.9,1.9c-0.1,0.1-0.2,0.3-0.3,0.4C85.5,47.8,85.4,48,85.3,48.2z M85.4,46.1
			c0.4-0.4,1-0.4,1.3,0.1c0,0-0.1,0-0.1,0.1c-0.2,0.2-0.4,0.3-0.5,0.5C85.9,46.5,85.7,46.3,85.4,46.1z M85,45.8
			c-0.3-0.2-0.6-0.4-0.9-0.5c1-1.3,3-1.3,3.9,0.1c0,0,0,0,0,0c-0.3,0.1-0.6,0.3-0.9,0.5C86.7,45.2,85.6,45.1,85,45.8z M87.7,44.3
			c-1.3-0.9-3.2-0.6-4,0.8c-0.3-0.1-0.6-0.2-0.9-0.2c0.6-1.2,1.9-1.9,3.2-1.9c1.4,0,2.7,0.8,3.3,2c-0.3,0.1-0.6,0.1-0.9,0.3
			C88.3,44.8,88,44.5,87.7,44.3z M85.3,40.3c-0.9-1.3-2.4-2-3.9-1.9c-1.5,0.1-2.8,1.1-3.4,2.4c-0.4,0-0.8-0.1-1.2,0
			c0.7-1.8,2.3-3.1,4.2-3.4c1.8-0.3,3.7,0.4,4.9,1.9c-0.1,0.1-0.2,0.3-0.3,0.4C85.5,39.9,85.4,40.1,85.3,40.3z M85.4,38.2
			c0.4-0.4,1-0.4,1.3,0.1c0,0-0.1,0-0.1,0.1c-0.2,0.2-0.4,0.3-0.5,0.5C85.9,38.7,85.7,38.4,85.4,38.2z M85,37.9
			c-0.3-0.2-0.6-0.4-0.9-0.5c1-1.3,3-1.3,3.9,0.1c0,0,0,0,0,0c-0.3,0.1-0.6,0.3-0.9,0.5C86.7,37.3,85.6,37.2,85,37.9z M87.7,36.4
			c-1.3-0.9-3.2-0.6-4,0.8c-0.3-0.1-0.6-0.2-0.9-0.2c0.7-1.2,1.9-1.9,3.3-1.9c1.4,0,2.6,0.8,3.3,2c-0.3,0.1-0.6,0.1-0.9,0.3
			C88.3,36.9,88,36.6,87.7,36.4z M85.3,32.5c-0.9-1.3-2.4-2-3.9-1.9c-1.5,0.1-2.8,1.1-3.4,2.4c-0.4,0-0.8-0.1-1.2,0
			c0.7-1.8,2.3-3.1,4.1-3.4c1.8-0.3,3.8,0.4,4.9,1.9c-0.1,0.1-0.2,0.3-0.3,0.4C85.5,32,85.4,32.2,85.3,32.5z M85.4,30.3
			c0.4-0.4,1-0.4,1.3,0.1c0,0-0.1,0-0.1,0.1c-0.2,0.2-0.4,0.3-0.5,0.5C85.9,30.8,85.7,30.5,85.4,30.3z M85,30
			c-0.3-0.2-0.6-0.4-0.9-0.5c1-1.3,3-1.3,3.9,0.1c0,0,0,0,0,0c-0.3,0.1-0.6,0.3-0.9,0.5C86.7,29.4,85.6,29.3,85,30z M87.4,28.3
			c-1.3-0.7-2.9-0.2-3.7,1c-0.3-0.1-0.6-0.2-0.9-0.2c0.6-1.2,1.9-1.9,3.2-1.9c1.4,0,2.7,0.8,3.3,2c-0.3,0.1-0.6,0.1-0.9,0.3
			C88.2,28.9,87.8,28.6,87.4,28.3z M81.8,26.1c0.3,0,0.5,0.1,0.7,0.3c-0.3,0.2-0.5,0.5-0.8,0.7c-0.2-0.2-0.4-0.4-0.6-0.6
			C81.2,26.2,81.5,26.1,81.8,26.1z M80.6,26.2c-0.3-0.2-0.6-0.4-0.9-0.5c0.9-1.4,3-1.5,4-0.1c-0.3,0.1-0.6,0.3-0.9,0.5
			c-0.2-0.3-0.6-0.5-1-0.5C81.3,25.6,80.9,25.8,80.6,26.2z M85,25.2c-0.3,0.1-0.6,0.1-0.9,0.2c-1.1-1.8-3.8-1.8-4.9,0.1
			c-0.3-0.1-0.6-0.2-0.9-0.3c0,0,0,0,0-0.1c0.6-1.2,1.9-2,3.3-2C83.1,23.2,84.4,24,85,25.2C85.1,25.2,85.1,25.2,85,25.2z M81.3,27.5
			c-0.2,0.3-0.4,0.7-0.6,1c-0.8-1.3-2.3-2-3.8-1.9c-1.5,0.1-2.8,1-3.5,2.3c-0.4,0-0.8,0-1.2,0c0.9-2.4,3.4-3.8,5.8-3.4
			C79.4,25.8,80.5,26.5,81.3,27.5z M73,26.1c0.3,0,0.5,0.1,0.7,0.3c-0.3,0.2-0.5,0.5-0.8,0.7c-0.2-0.2-0.4-0.4-0.6-0.6
			C72.4,26.2,72.6,26.1,73,26.1z M71.8,26.2c-0.3-0.2-0.6-0.4-0.9-0.5c0.9-1.4,3-1.5,4-0.1c-0.3,0.1-0.6,0.3-0.9,0.5
			c-0.2-0.3-0.6-0.5-1-0.5C72.5,25.6,72.1,25.8,71.8,26.2z M76.2,25.2c-0.3,0.1-0.6,0.1-0.9,0.2c-1.1-1.8-3.8-1.8-4.9,0.1
			c-0.3-0.1-0.6-0.2-0.9-0.3c0,0,0,0,0-0.1c0.6-1.2,1.9-2,3.3-2C74.3,23.2,75.6,24,76.2,25.2C76.2,25.2,76.2,25.2,76.2,25.2z
			 M72.5,27.5c-0.2,0.3-0.4,0.7-0.6,1c-0.8-1.3-2.3-2-3.8-1.9c-1.5,0.1-2.8,1-3.5,2.3c-0.4,0-0.8,0-1.2,0c0.9-2.4,3.4-3.8,5.8-3.4
			C70.6,25.8,71.7,26.5,72.5,27.5z M64.1,26.1c0.3,0,0.5,0.1,0.7,0.3c-0.3,0.2-0.5,0.5-0.8,0.7c-0.2-0.2-0.4-0.4-0.6-0.6
			C63.6,26.2,63.8,26.1,64.1,26.1z M63,26.2c-0.3-0.2-0.6-0.4-0.9-0.5c0.9-1.4,3-1.5,4-0.1c-0.3,0.1-0.6,0.3-0.9,0.5
			c-0.2-0.3-0.6-0.5-1-0.5C63.7,25.6,63.3,25.8,63,26.2z M67.4,25.2c-0.3,0.1-0.6,0.1-0.9,0.2c-1.1-1.8-3.8-1.8-4.9,0.1
			c-0.3-0.1-0.6-0.2-0.9-0.3c0,0,0,0,0-0.1c0.6-1.2,1.9-2,3.3-2C65.5,23.2,66.8,24,67.4,25.2C67.4,25.2,67.4,25.2,67.4,25.2z
			 M63.7,27.5c-0.2,0.3-0.4,0.7-0.6,1c-0.8-1.3-2.3-2-3.8-1.9c-1.5,0.1-2.8,1-3.5,2.3c-0.4,0-0.8,0-1.2,0c0.9-2.4,3.4-3.8,5.8-3.4
			C61.7,25.8,62.9,26.5,63.7,27.5z M55.3,26.1c0.3,0,0.5,0.1,0.7,0.3c-0.3,0.2-0.5,0.5-0.8,0.7c-0.2-0.2-0.4-0.4-0.6-0.6
			C54.7,26.2,55,26.1,55.3,26.1z M54.2,26.2c-0.3-0.2-0.6-0.4-0.9-0.5c0.9-1.4,3-1.5,4-0.1c-0.3,0.1-0.6,0.3-0.9,0.5
			c-0.2-0.3-0.6-0.5-1-0.5C54.9,25.6,54.5,25.8,54.2,26.2z M58.6,25.2c-0.3,0.1-0.6,0.1-0.9,0.2c-1.1-1.8-3.8-1.8-4.9,0.1
			c-0.3-0.1-0.6-0.2-0.9-0.3c0,0,0,0,0-0.1c0.6-1.2,1.9-2,3.3-2C56.7,23.2,58,24,58.6,25.2C58.6,25.2,58.6,25.2,58.6,25.2z
			 M54.9,27.5c-0.2,0.3-0.4,0.7-0.6,1c-0.8-1.3-2.3-2-3.8-1.9c-1.5,0.1-2.8,1-3.5,2.3c-0.4,0-0.8,0-1.2,0c0.9-2.4,3.4-3.8,5.8-3.4
			C52.9,25.8,54.1,26.5,54.9,27.5z M46.5,26.1c0.3,0,0.5,0.1,0.7,0.3c-0.3,0.2-0.5,0.5-0.8,0.7c-0.2-0.2-0.4-0.4-0.6-0.6
			C45.9,26.2,46.2,26.1,46.5,26.1z M45.4,26.2c-0.3-0.2-0.6-0.4-0.9-0.5c0.9-1.4,3-1.5,4-0.1c-0.3,0.1-0.6,0.3-0.9,0.5
			c-0.2-0.3-0.6-0.5-1-0.5C46.1,25.6,45.6,25.8,45.4,26.2z M49.8,25.2c-0.3,0.1-0.6,0.1-0.9,0.2c-1.1-1.8-3.8-1.8-4.9,0.1
			c-0.3-0.1-0.6-0.2-0.9-0.3c0,0,0,0,0-0.1c0.6-1.2,1.9-2,3.3-2C47.9,23.2,49.2,24,49.8,25.2C49.8,25.2,49.8,25.2,49.8,25.2z
			 M46.1,27.5c-0.2,0.3-0.4,0.7-0.6,1c-0.8-1.3-2.3-2-3.8-1.9c-1.5,0.1-2.8,1-3.5,2.3c-0.4,0-0.8,0-1.2,0c0.9-2.3,3.4-3.8,5.8-3.4
			C44.1,25.8,45.3,26.5,46.1,27.5z M37.7,26.1c0.3,0,0.5,0.1,0.7,0.3c-0.3,0.2-0.5,0.5-0.8,0.7c-0.2-0.2-0.4-0.4-0.6-0.6
			C37.1,26.2,37.4,26.1,37.7,26.1z M36.6,26.2c-0.3-0.2-0.6-0.4-0.9-0.5c0.9-1.4,3-1.5,4-0.1c-0.3,0.1-0.6,0.3-0.9,0.5
			c-0.2-0.3-0.6-0.5-1-0.5C37.2,25.6,36.8,25.8,36.6,26.2z M41,25.2c-0.3,0.1-0.6,0.1-0.9,0.2c-1.1-1.8-3.8-1.8-4.9,0.1
			c-0.3-0.1-0.6-0.2-0.9-0.3c0,0,0,0,0-0.1c0.6-1.2,1.9-2,3.3-2S40.4,24,41,25.2C41,25.2,41,25.2,41,25.2z M37.3,27.5
			c-0.2,0.3-0.4,0.7-0.6,1c-0.8-1.3-2.3-2-3.8-1.9c-1.5,0.1-2.8,1-3.5,2.4c-0.4,0-0.8,0-1.2,0c0.9-2.3,3.4-3.8,5.8-3.4
			C35.3,25.8,36.5,26.5,37.3,27.5z M28.9,26.1c0.3,0,0.5,0.1,0.7,0.3c-0.3,0.2-0.5,0.5-0.8,0.7c-0.2-0.2-0.4-0.4-0.6-0.6
			C28.3,26.2,28.6,26.1,28.9,26.1z M27.8,26.2c-0.3-0.2-0.6-0.4-0.9-0.5c0.9-1.4,3-1.5,4-0.1c-0.3,0.1-0.6,0.3-0.9,0.5
			c-0.2-0.3-0.6-0.5-1-0.5C28.4,25.6,28,25.8,27.8,26.2z M32.2,25.2c-0.3,0.1-0.6,0.1-0.9,0.2c-1.1-1.8-3.8-1.8-4.9,0.1
			c-0.3-0.1-0.6-0.2-0.9-0.3c0,0,0,0,0-0.1c0.6-1.2,1.9-2,3.3-2S31.6,24,32.2,25.2C32.2,25.2,32.2,25.2,32.2,25.2z M20,31.1
			c1.4,0,2.7,0.8,3.3,2c0,0,0,0,0,0c-0.3,0.1-0.6,0.1-0.9,0.2c-1.1-1.8-3.8-1.8-4.9,0.1c-0.3-0.1-0.6-0.2-0.9-0.3
			C17.4,31.9,18.7,31.1,20,31.1z M22,33.5c-0.3,0.1-0.6,0.3-0.9,0.5c-0.6-0.7-1.7-0.7-2.2,0.1c-0.3-0.2-0.6-0.4-0.9-0.5
			C19,32.1,21.1,32.1,22,33.5z M20.7,34.3c-0.3,0.2-0.5,0.5-0.8,0.7c-0.2-0.2-0.4-0.4-0.6-0.6C19.6,33.9,20.4,33.8,20.7,34.3z
			 M24.1,33.5c1.7-0.1,3.3,0.6,4.4,1.9c-0.2,0.3-0.4,0.7-0.6,1c-0.8-1.2-2.3-2-3.8-1.9c-1.5,0.1-2.9,1-3.5,2.4c-0.4,0-0.8,0-1.2,0
			c0.1-0.4,0.3-0.7,0.5-1.1C20.9,34.5,22.4,33.5,24.1,33.5z M20,38.9c1.4,0,2.7,0.8,3.3,2c0,0,0,0,0,0c-0.3,0.1-0.6,0.1-0.9,0.2
			c-1.1-1.8-3.8-1.8-4.9,0.1c-0.3-0.1-0.6-0.2-0.9-0.3C17.4,39.8,18.7,39,20,38.9z M22,41.3c-0.3,0.1-0.6,0.3-0.9,0.5
			c-0.6-0.7-1.7-0.7-2.2,0.1c-0.3-0.2-0.6-0.4-0.9-0.5C19,40,21.1,39.9,22,41.3z M20.7,42.1c-0.3,0.2-0.5,0.5-0.8,0.7
			c-0.1-0.1-0.2-0.2-0.3-0.4c-0.1-0.1-0.2-0.2-0.3-0.3C19.6,41.7,20.4,41.7,20.7,42.1z M24.1,41.3c1.7-0.1,3.3,0.6,4.4,1.9
			c-0.2,0.3-0.4,0.7-0.6,1c-0.8-1.2-2.3-2-3.8-1.9c-1.5,0.1-2.9,1-3.5,2.4c-0.4,0-0.8,0-1.2,0c0.1-0.4,0.3-0.7,0.5-1.1
			C20.9,42.3,22.4,41.4,24.1,41.3z M20,46.8c1.4,0,2.7,0.8,3.3,2c0,0,0,0,0,0c-0.3,0.1-0.6,0.1-0.9,0.2c-1.1-1.8-3.8-1.7-4.9,0.1
			c-0.3-0.1-0.6-0.2-0.9-0.3C17.4,47.6,18.7,46.9,20,46.8z M22,49.2c-0.3,0.1-0.6,0.3-0.9,0.5c-0.6-0.7-1.7-0.7-2.2,0.1
			c-0.3-0.2-0.6-0.4-0.9-0.5C19,47.9,21.1,47.8,22,49.2z M20.7,50c-0.3,0.2-0.5,0.5-0.8,0.7c-0.1-0.1-0.2-0.2-0.3-0.4
			c-0.1-0.1-0.2-0.2-0.3-0.3C19.6,49.6,20.4,49.6,20.7,50z M24.1,49.2c1.7-0.1,3.3,0.6,4.4,1.9c-0.2,0.3-0.4,0.7-0.6,1
			c-0.8-1.2-2.3-2-3.8-1.9c-1.5,0.1-2.9,1-3.5,2.4c-0.4,0-0.8,0-1.2,0c0.1-0.4,0.3-0.7,0.5-1.1C20.9,50.2,22.4,49.3,24.1,49.2z
			 M20,54.7c1.4,0,2.7,0.8,3.3,2c0,0,0,0,0,0c-0.3,0.1-0.6,0.1-0.9,0.2c-1.1-1.8-3.8-1.7-4.9,0.1c-0.3-0.1-0.6-0.2-0.9-0.3
			C17.4,55.5,18.7,54.7,20,54.7z M22,57.1c-0.3,0.1-0.6,0.3-0.9,0.5c-0.6-0.7-1.7-0.7-2.2,0.1c-0.3-0.2-0.6-0.4-0.9-0.5
			C19,55.8,21.1,55.7,22,57.1z M20.7,57.9c-0.3,0.2-0.5,0.5-0.8,0.7c-0.2-0.2-0.4-0.4-0.6-0.6C19.6,57.5,20.4,57.5,20.7,57.9z
			 M24.1,57.1c1.7-0.1,3.3,0.6,4.4,1.9c-0.2,0.3-0.4,0.7-0.6,1c-0.8-1.2-2.3-2-3.8-1.9c-1.5,0.1-2.9,1-3.5,2.4c-0.4,0-0.8,0-1.2,0
			c0.1-0.4,0.3-0.7,0.5-1.1C20.9,58.1,22.4,57.2,24.1,57.1z M20,62.6c1.4,0,2.7,0.8,3.3,2c0,0,0,0,0,0c-0.3,0.1-0.6,0.1-0.9,0.2
			c-1.1-1.8-3.8-1.8-4.9,0.1c-0.3-0.1-0.6-0.2-0.9-0.3C17.4,63.4,18.7,62.6,20,62.6z M22,65c-0.3,0.1-0.6,0.3-0.9,0.5
			c-0.6-0.7-1.7-0.7-2.2,0.1c-0.3-0.2-0.6-0.4-0.9-0.5C19,63.7,21.1,63.6,22,65z M20.7,65.8c-0.3,0.2-0.5,0.5-0.8,0.7
			c-0.1-0.1-0.2-0.2-0.3-0.4c-0.1-0.1-0.2-0.2-0.3-0.3C19.6,65.4,20.4,65.3,20.7,65.8z M24.1,65c1.7-0.1,3.3,0.6,4.4,1.9
			c-0.2,0.3-0.4,0.7-0.6,1c-0.8-1.2-2.3-2-3.8-1.9c-1.5,0.1-2.9,1-3.5,2.4c-0.4,0-0.8,0-1.2,0c0.1-0.4,0.3-0.7,0.5-1.1
			C20.9,66,22.4,65.1,24.1,65z M23.4,69.4c-0.3-0.2-0.6-0.4-0.9-0.5c1-1.3,3-1.3,3.9,0.1c0,0,0,0,0,0c-0.3,0.1-0.6,0.3-0.9,0.5
			C25,68.8,23.9,68.8,23.4,69.4z M25.1,69.8C25.1,69.9,25,69.9,25.1,69.8c-0.3,0.2-0.4,0.4-0.6,0.6c-0.2-0.3-0.5-0.5-0.7-0.7
			C24.1,69.3,24.8,69.4,25.1,69.8z M26,68c-1.3-0.9-3.2-0.6-4,0.8c-0.3-0.1-0.6-0.2-0.9-0.2c0.7-1.2,1.9-1.9,3.3-1.9
			c1.4,0,2.6,0.8,3.3,2c0,0,0,0,0,0c-0.3,0.1-0.6,0.1-0.9,0.3C26.6,68.5,26.3,68.2,26,68z M85.4,69.7c0.4-0.4,1-0.4,1.3,0.1
			c0,0-0.1,0-0.1,0.1c-0.2,0.2-0.4,0.3-0.5,0.5C85.9,70.2,85.7,70,85.4,69.7z M85,69.4c-0.3-0.2-0.6-0.4-0.9-0.5
			c1-1.3,3-1.3,3.9,0.1c0,0,0,0,0,0c-0.3,0.1-0.6,0.3-0.9,0.5C86.7,68.8,85.6,68.8,85,69.4z M87.7,68c-1.3-0.9-3.2-0.6-4,0.8
			c-0.3-0.1-0.6-0.2-0.9-0.2c0.6-1.2,1.9-1.9,3.2-1.9c1.4,0,2.7,0.8,3.3,2c-0.3,0.1-0.6,0.1-0.9,0.3C88.3,68.5,88,68.2,87.7,68z
			 M86.1,66.1c-1.6,0-3.1,0.9-3.8,2.4c-0.4,0-0.8,0-1.2,0c0.8-2.2,3-3.6,5.3-3.5c2.1,0.1,3.9,1.5,4.7,3.4c-0.4,0-0.8,0-1.2,0
			C89.2,67,87.7,66.1,86.1,66.1z M90.9,67.1c-0.3-0.4-0.6-0.8-1-1.2c0.3-0.6,1.2-0.6,1.5,0C91.5,66.3,91.4,66.9,90.9,67.1z
			 M91.9,66.3c0-1.3-1.7-1.8-2.5-0.7c-0.3-0.2-0.6-0.4-0.9-0.5c0.9-1.5,3.2-1.5,4.1,0.1c0.6,1.2,0.2,2.7-1.1,3.3
			c-0.1-0.3-0.2-0.6-0.4-0.9C91.6,67.3,91.9,66.9,91.9,66.3z M93.3,65.6c-0.3-1.3-1.6-2.2-3-2.1c-0.9,0.1-1.7,0.6-2.2,1.4
			c-0.3-0.1-0.6-0.2-0.9-0.3c0.2-0.4,0.5-0.8,0.9-1.1c1.3-1.1,3.3-1.2,4.6-0.1c1.1,0.8,1.7,2.3,1.4,3.7c-0.1,0.8-0.5,1.5-1.1,2
			c-0.3-0.1-0.6-0.3-0.9-0.4C93.2,68,93.6,66.7,93.3,65.6z M95.9,58.6c0,1.3-0.5,2.5-1.4,3.4c-0.3-0.2-0.6-0.5-0.9-0.7
			c1.2-1.3,1.5-3.3,0.7-4.8c-0.9-1.8-3.1-2.7-5-2.1c-1.1,0.4-2,1.2-2.5,2.2c-0.4,0-0.8-0.1-1.2,0c0.9-2.5,3.6-4,6.2-3.4
			C94.2,53.9,95.9,56.1,95.9,58.6z M95.9,50.7c0,1.3-0.5,2.5-1.4,3.5c-0.3-0.2-0.6-0.5-0.9-0.7c1.2-1.3,1.5-3.2,0.8-4.8
			c-0.9-1.9-3.1-2.8-5.1-2.2c-1.1,0.4-2,1.2-2.5,2.2c-0.4,0-0.8-0.1-1.2,0c0.9-2.5,3.6-4,6.2-3.4C94.2,46,95.9,48.2,95.9,50.7z
			 M95.9,42.8c0,1.3-0.5,2.5-1.4,3.4c-0.3-0.2-0.6-0.5-0.9-0.7c1.2-1.3,1.5-3.3,0.7-4.8c-0.9-1.8-3.1-2.7-5-2.1
			c-1.1,0.4-2,1.2-2.5,2.2c-0.4,0-0.8-0.1-1.2,0c0.9-2.5,3.6-4,6.2-3.4C94.2,38.1,95.9,40.3,95.9,42.8z M95.9,34.9
			c0,1.3-0.5,2.5-1.4,3.4c-0.3-0.2-0.6-0.5-0.9-0.7c1.2-1.3,1.5-3.3,0.7-4.8c-0.9-1.8-3.1-2.7-5-2.1c-1.1,0.4-2,1.2-2.5,2.2
			c-0.4,0-0.8-0.1-1.2,0c0.9-2.5,3.6-4,6.2-3.4C94.2,30.2,95.9,32.5,95.9,34.9z M90.6,21.6c3.2,0,5.7,3,5.2,6.1
			c-0.2,1-0.6,2-1.3,2.8c-0.3-0.2-0.6-0.5-0.9-0.7c1.4-1.4,1.6-3.6,0.5-5.2c-1.1-1.6-3.2-2.3-5-1.6c-1,0.4-1.9,1.2-2.4,2.2
			c-0.4,0-0.8-0.1-1.2,0C86.3,23,88.4,21.6,90.6,21.6z M81.8,21.6c1.6,0,3.1,0.8,4.1,1.9c-0.2,0.3-0.4,0.7-0.6,1
			c-0.8-1.3-2.3-2-3.9-1.9c-1.5,0.1-2.9,1.1-3.5,2.4c-0.4,0-0.8-0.1-1.2,0C77.5,23,79.6,21.6,81.8,21.6z M73,21.6
			c1.6,0,3.1,0.8,4.1,1.9c-0.2,0.3-0.4,0.7-0.6,1c-0.8-1.3-2.3-2-3.9-1.9c-1.5,0.1-2.9,1.1-3.5,2.4c-0.4,0-0.8-0.1-1.2,0
			C68.7,23,70.7,21.6,73,21.6z M64.1,21.6c1.6,0,3.1,0.8,4.1,1.9c-0.2,0.3-0.4,0.7-0.6,1c-0.8-1.3-2.3-2-3.9-1.9
			c-1.5,0.1-2.9,1.1-3.5,2.4c-0.4,0-0.8-0.1-1.2,0C59.9,23,61.9,21.6,64.1,21.6z M55.3,21.6c1.6,0,3.1,0.8,4.1,1.9
			c-0.2,0.3-0.4,0.7-0.6,1c-0.8-1.3-2.3-2-3.9-1.9c-1.5,0.1-2.9,1.1-3.5,2.4c-0.4,0-0.8-0.1-1.2,0C51.1,23,53.1,21.6,55.3,21.6z
			 M46.5,21.6c1.6,0,3.1,0.8,4.1,1.9c-0.2,0.3-0.4,0.7-0.6,1c-0.8-1.3-2.3-2-3.9-1.9c-1.5,0.1-2.9,1.1-3.5,2.4c-0.4,0-0.8-0.1-1.2,0
			C42.3,23,44.3,21.6,46.5,21.6z M36.8,21.7c1.8-0.3,3.8,0.4,5,1.9c-0.2,0.3-0.4,0.7-0.6,1c-0.8-1.3-2.3-2-3.9-1.9
			c-1.5,0.1-2.9,1.1-3.5,2.4c-0.4,0-0.8-0.1-1.2,0C33.4,23.3,35,22,36.8,21.7z M28,21.7c1.8-0.3,3.8,0.4,5,1.9
			c-0.2,0.3-0.4,0.7-0.6,1c-0.8-1.3-2.3-2-3.9-1.9c-1.5,0.1-2.9,1.1-3.5,2.4c-0.4,0-0.8-0.1-1.2,0C24.6,23.3,26.2,22,28,21.7z
			 M21.9,21.9c0.9,0.3,1.7,0.9,2.3,1.6c-0.2,0.3-0.4,0.7-0.6,1c-0.8-1.3-2.4-2-3.9-1.9c-1.5,0.1-2.8,1.1-3.4,2.4
			c-0.4,0-0.8-0.1-1.2,0C16.1,22.4,19.2,20.9,21.9,21.9z M11.9,27c0.7-0.7,1.6-1.1,2.5-1.3c1.9-0.4,4,0.3,5.2,1.8
			c-0.2,0.3-0.4,0.7-0.6,1c-1.1-1.7-3.4-2.3-5.2-1.5c-1.6,0.7-2.6,2.4-2.5,4.1c0.1,1,0.5,2,1.2,2.7c-0.3,0.2-0.6,0.4-0.9,0.7
			C9.8,32.4,9.9,29,11.9,27z M11.9,35c2.2-2.2,5.9-2,7.8,0.4c-0.2,0.3-0.4,0.7-0.6,1c-1.1-1.7-3.4-2.4-5.3-1.5
			c-1.6,0.8-2.6,2.5-2.4,4.2c0.1,0.9,0.5,1.8,1.2,2.5c-0.3,0.2-0.6,0.4-0.9,0.7C9.8,40.3,9.9,36.9,11.9,35z M11.9,42.9
			c2.2-2.2,5.9-2,7.8,0.4c-0.2,0.3-0.4,0.7-0.6,1c-1.1-1.7-3.4-2.4-5.3-1.5c-1.6,0.8-2.6,2.5-2.4,4.2c0.1,0.9,0.5,1.8,1.2,2.5
			c-0.3,0.2-0.6,0.4-0.9,0.7C9.8,48.2,9.9,44.8,11.9,42.9z M11.9,50.8c2.2-2.2,5.9-2,7.8,0.4c-0.2,0.3-0.4,0.7-0.6,1
			c-1.2-1.7-3.5-2.4-5.3-1.5c-1.6,0.8-2.5,2.5-2.3,4.2c0.1,0.9,0.5,1.8,1.2,2.5c-0.3,0.2-0.6,0.4-0.9,0.7
			C9.8,56.1,9.9,52.7,11.9,50.8z M11.9,58.6c2.2-2.2,5.9-2,7.8,0.4c-0.2,0.3-0.4,0.7-0.6,1c-1.1-1.7-3.4-2.4-5.3-1.5
			c-1.6,0.8-2.6,2.5-2.4,4.2c0.1,0.9,0.5,1.8,1.2,2.5c-0.3,0.2-0.6,0.4-0.9,0.7C9.8,64,9.9,60.6,11.9,58.6z M11.9,66.5
			c2.2-2.2,5.9-2,7.8,0.4c-0.2,0.3-0.4,0.7-0.6,1c-1.1-1.7-3.4-2.4-5.3-1.5c-1.6,0.8-2.6,2.5-2.4,4.2c0.1,0.9,0.5,1.8,1.2,2.5
			c-0.3,0.2-0.6,0.4-0.9,0.7C9.8,71.8,9.9,68.5,11.9,66.5z M15.3,83.5c-1.6-0.1-3.2-1-4.1-2.3c-0.6-0.9-0.9-1.9-0.9-3
			c0-1.7,0.8-3.3,2.2-4.3c1.4-1,3.3-1.3,5-0.7c0.9,0.3,1.6,0.9,2.2,1.6c-0.2,0.3-0.4,0.7-0.6,1c-0.9-1.3-2.5-2.1-4.1-1.8
			c-1.4,0.2-2.7,1.1-3.3,2.5c-0.5,1.2-0.5,2.6,0.2,3.8c0.7,1.1,1.9,1.9,3.2,2.1c1.6,0.2,3.1-0.5,4-1.8c0.2,0.4,0.4,0.7,0.6,1
			C18.6,82.8,17,83.6,15.3,83.5z M18.9,79.9c-1.2,2.3-4.4,2.6-6.1,0.7c-0.8-0.9-1.1-2.2-0.8-3.4c0.4-1.3,1.5-2.4,2.8-2.7
			c1.6-0.3,3.3,0.4,4.1,1.9c-0.1,0.4-0.2,0.8-0.2,1.2C18.6,78.4,18.6,79.2,18.9,79.9z M24.4,83.5c-1.6,0-3.1-0.7-4.1-1.9
			c-1.5-1.8-1.6-4.3-0.3-6.3c1.2-1.8,3.4-2.7,5.4-2.3c1.2,0.2,2.3,0.9,3.1,1.8c-0.2,0.3-0.4,0.7-0.6,1c-0.8-1.2-2.2-1.9-3.7-1.9
			c-1.4,0.1-2.8,0.9-3.5,2.1c-0.7,1.3-0.7,2.9,0,4.2c0.7,1.2,1.9,2,3.2,2.1c1.5,0.2,3.1-0.6,3.9-1.9c0.2,0.4,0.4,0.7,0.6,1
			C27.5,82.8,26,83.5,24.4,83.5z M27.7,79.9c-0.6,1.1-1.7,1.8-3,2c-1.2,0.1-2.5-0.4-3.2-1.4c-0.8-1-1.1-2.5-0.5-3.8
			c0.5-1.2,1.7-2.1,3-2.3c1.5-0.2,3,0.6,3.7,2c-0.1,0.4-0.2,0.8-0.2,1.2C27.4,78.4,27.4,79.2,27.7,79.9z M33.2,83.5
			c-1.6,0-3.1-0.7-4.1-1.9c-1.5-1.8-1.6-4.3-0.3-6.3c1.2-1.8,3.4-2.7,5.4-2.3c1.2,0.2,2.3,0.9,3.1,1.8c-0.2,0.3-0.4,0.7-0.6,1
			c-0.8-1.2-2.2-1.9-3.7-1.9c-1.4,0.1-2.8,0.9-3.5,2.1c-0.7,1.3-0.7,2.9,0,4.2c0.7,1.2,1.9,2,3.2,2.1c1.5,0.2,3.1-0.6,3.9-1.9
			c0.2,0.4,0.4,0.7,0.6,1C36.3,82.8,34.8,83.5,33.2,83.5z M36.5,79.9c-0.6,1.1-1.7,1.8-3,2c-1.2,0.1-2.5-0.4-3.2-1.4
			c-0.8-1-1.1-2.5-0.5-3.8c0.5-1.2,1.7-2.1,3-2.3c1.5-0.2,3,0.6,3.7,2c-0.1,0.4-0.2,0.8-0.2,1.2C36.2,78.4,36.3,79.2,36.5,79.9z
			 M42,83.5c-2.9,0-5.3-2.4-5.3-5.3c0-2.9,2.4-5.3,5.3-5.3c1.6,0,3.1,0.7,4.1,1.9c-0.2,0.3-0.4,0.7-0.6,1c-0.8-1.2-2.2-1.9-3.7-1.9
			c-1.5,0.1-2.8,0.9-3.5,2.2c-0.7,1.3-0.6,2.9,0.1,4.1c0.7,1.2,1.9,1.9,3.3,2c1.5,0.1,3-0.6,3.9-1.9c0.2,0.4,0.4,0.7,0.6,1
			C45.1,82.7,43.7,83.5,42,83.5z M45.3,79.9c-0.6,1.1-1.7,1.8-3,2c-1.2,0.1-2.5-0.4-3.3-1.4c-0.8-1.1-1-2.5-0.5-3.8
			c0.5-1.2,1.7-2.1,3-2.2c1.5-0.2,3,0.6,3.7,2c-0.1,0.4-0.2,0.8-0.2,1.2C45,78.4,45.1,79.2,45.3,79.9z M50.8,83.5
			c-2.9,0-5.3-2.4-5.3-5.3c0-2.9,2.4-5.3,5.3-5.3c1.6,0,3.1,0.7,4.1,1.9c-0.2,0.3-0.4,0.7-0.6,1c-0.8-1.2-2.2-1.9-3.7-1.9
			c-1.5,0.1-2.8,0.9-3.5,2.2c-0.7,1.3-0.6,2.9,0.1,4.1c0.7,1.2,1.9,1.9,3.3,2c1.5,0.1,3-0.6,3.9-1.9c0.2,0.4,0.4,0.7,0.6,1
			C53.9,82.7,52.5,83.5,50.8,83.5z M54.1,79.9c-0.6,1.1-1.7,1.8-3,2c-1.2,0.1-2.5-0.4-3.3-1.4c-0.8-1.1-1-2.5-0.5-3.8
			c0.5-1.2,1.7-2.1,3-2.2c1.5-0.2,3,0.6,3.7,2c-0.1,0.4-0.2,0.8-0.2,1.2C53.8,78.4,53.9,79.2,54.1,79.9z M59.6,83.5
			c-2.9,0-5.3-2.4-5.3-5.3c0-2.9,2.4-5.3,5.3-5.3c1.6,0,3.1,0.7,4.1,1.9c-0.2,0.3-0.4,0.7-0.6,1c-0.8-1.2-2.2-1.9-3.7-1.9
			c-1.5,0.1-2.8,0.9-3.5,2.2c-0.7,1.3-0.6,2.9,0.1,4.1c0.7,1.2,1.9,1.9,3.3,2c1.5,0.1,3-0.6,3.9-1.9c0.2,0.4,0.4,0.7,0.6,1
			C62.8,82.7,61.3,83.5,59.6,83.5z M62.9,79.9c-0.6,1.1-1.7,1.8-3,2c-1.2,0.1-2.5-0.4-3.3-1.4c-0.8-1.1-1-2.5-0.5-3.8
			c0.5-1.2,1.7-2.1,3-2.2c1.5-0.2,3,0.6,3.7,2c-0.1,0.4-0.2,0.8-0.2,1.2C62.6,78.4,62.7,79.2,62.9,79.9z M68.4,83.5
			c-2.9,0-5.3-2.4-5.3-5.3c0-2.9,2.4-5.3,5.3-5.3c1.6,0,3.1,0.7,4.1,1.9c-0.2,0.3-0.4,0.7-0.6,1c-0.8-1.2-2.2-1.9-3.7-1.9
			c-1.5,0.1-2.8,0.9-3.5,2.2c-0.7,1.3-0.6,2.9,0.1,4.1c0.7,1.2,1.9,1.9,3.3,2c1.5,0.1,3-0.6,3.9-1.9c0.2,0.4,0.4,0.7,0.6,1
			C71.6,82.7,70.1,83.5,68.4,83.5z M71.7,79.9c-0.6,1.1-1.7,1.8-3,2c-1.2,0.1-2.5-0.4-3.3-1.4c-0.8-1.1-1-2.5-0.5-3.8
			c0.5-1.2,1.7-2.1,3-2.2c1.5-0.2,3,0.6,3.7,2c-0.1,0.4-0.2,0.8-0.2,1.2C71.4,78.4,71.5,79.2,71.7,79.9z M77.3,83.5
			c-2.9,0-5.3-2.4-5.3-5.3c0-2.9,2.4-5.3,5.3-5.3c1.6,0,3.1,0.7,4.1,1.9c-0.2,0.3-0.4,0.7-0.6,1c-0.8-1.2-2.2-1.9-3.7-1.9
			c-1.5,0.1-2.8,0.9-3.5,2.2c-0.7,1.3-0.6,2.9,0.1,4.1c0.7,1.2,1.9,1.9,3.3,2c1.5,0.1,3-0.6,3.9-1.9c0.2,0.4,0.4,0.7,0.6,1
			C80.4,82.7,78.9,83.5,77.3,83.5z M80.5,79.9c-0.6,1.1-1.7,1.8-3,2c-1.2,0.1-2.5-0.4-3.3-1.4c-0.8-1.1-1-2.5-0.5-3.8
			c0.5-1.2,1.7-2.1,3-2.2c1.5-0.2,3,0.6,3.7,2c-0.1,0.4-0.2,0.8-0.2,1.2C80.2,78.4,80.3,79.2,80.5,79.9z M91,80
			c-0.6,1.8-2.3,3.1-4.1,3.4c-2.1,0.4-4.2-0.6-5.3-2.4c-1.3-2-1-4.7,0.6-6.5c1.6-1.7,4.1-2.1,6.2-1.2C90.8,74.6,92,77.5,91,80z
			 M89.8,73.8c0.3-0.6,1.1-0.6,1.4,0c0.2,0.4,0.1,1-0.4,1.2c-0.2-0.3-0.5-0.6-0.8-0.9C90,74,89.9,73.9,89.8,73.8z M91.6,76.4
			c-0.1-0.3-0.2-0.6-0.4-0.9c0.4-0.2,0.8-0.7,0.8-1.2c0-1.3-1.7-1.8-2.5-0.7c-0.3-0.2-0.6-0.4-0.9-0.5c0.9-1.5,3.2-1.5,4.1,0.1
			C93.3,74.3,92.8,75.8,91.6,76.4z M93.4,73.9c-0.2-1.4-1.4-2.5-2.9-2.5c-1,0-1.9,0.6-2.4,1.4c-0.3-0.1-0.6-0.2-0.9-0.3
			c0.2-0.4,0.5-0.8,0.9-1.1c1.4-1.2,3.6-1.2,4.9,0.1c1.2,1.1,1.5,3,0.7,4.5c-0.4,0.8-1.2,1.4-2,1.7c0-0.3-0.1-0.6-0.1-0.9
			C92.8,76.3,93.5,75.1,93.4,73.9z M95.4,76.5c-0.7,1.5-2,2.6-3.6,2.9c0.1-0.4,0.1-0.8,0.1-1.2c2-0.6,3.3-2.8,2.9-4.8
			c-0.5-2.3-2.7-3.8-5-3.3c-1.3,0.3-2.4,1.2-2.9,2.3c-0.4,0-0.8-0.1-1.2,0c1.1-3,4.8-4.4,7.6-2.8C95.6,71,96.5,74,95.4,76.5z"/>
		<path class="st1" d="M16,75.4c-1.2-0.2-2.4,0.4-3,1.5c-0.5,1-0.4,2.2,0.3,3.1c0.7,0.9,1.9,1.3,2.9,1c1.4-0.4,2.3-1.7,2.1-3.1
			C18.2,76.6,17.3,75.6,16,75.4z M13.9,79.8c-1.4-1.4-0.4-3.8,1.5-4c1.4-0.1,2.6,1,2.6,2.4C17.9,80.3,15.3,81.3,13.9,79.8z"/>
		<path class="st1" d="M15.6,76.8c-0.7,0-1.3,0.6-1.3,1.4c0,0.7,0.6,1.3,1.3,1.3c0.7,0,1.3-0.6,1.3-1.3
			C16.9,77.5,16.3,76.8,15.6,76.8z M14.7,78.2c0-0.4,0.3-0.8,0.7-0.9c0.5-0.1,1,0.3,1,0.8C16.4,79.2,14.8,79.3,14.7,78.2z"/>
		<path class="st1" d="M24.8,75.4c-1.3-0.2-2.6,0.6-3,1.8c-0.4,1.2,0,2.5,1,3.3c0.8,0.6,1.8,0.7,2.7,0.4c1.3-0.4,2.1-1.7,1.9-3
			C27,76.5,26,75.5,24.8,75.4z M23,80.1c-0.8-0.6-1.2-1.8-0.8-2.7c0.4-1,1.4-1.6,2.4-1.5c1.2,0.1,2.1,1.2,2.1,2.4
			C26.8,80.1,24.5,81.2,23,80.1z"/>
		<path class="st1" d="M25.1,77.1c-0.7-0.4-1.6-0.2-1.9,0.5c-0.3,0.7-0.1,1.5,0.6,1.8c0.6,0.3,1.3,0.1,1.6-0.4
			C25.9,78.4,25.8,77.5,25.1,77.1z M23.6,78.3c0-0.5,0.3-0.9,0.8-0.9c0.5,0,0.9,0.4,0.9,0.8C25.2,79.2,23.7,79.3,23.6,78.3z"/>
		<path class="st1" d="M33.6,75.4c-1.3-0.2-2.6,0.6-3,1.8c-0.4,1.2,0,2.5,1,3.3c0.8,0.6,1.8,0.7,2.7,0.4c1.3-0.4,2.1-1.7,1.9-3
			C35.9,76.5,34.8,75.5,33.6,75.4z M31.8,80.1c-0.8-0.6-1.2-1.8-0.8-2.7c0.4-1,1.4-1.6,2.4-1.5c1.2,0.1,2.1,1.2,2.1,2.4
			C35.6,80.1,33.3,81.2,31.8,80.1z"/>
		<path class="st1" d="M33.9,77.1c-0.7-0.4-1.6-0.2-1.9,0.5c-0.3,0.7-0.1,1.5,0.6,1.8c0.6,0.3,1.3,0.1,1.6-0.4
			C34.7,78.4,34.6,77.5,33.9,77.1z M32.4,78.3c0-0.5,0.3-0.9,0.8-0.9c0.5,0,0.9,0.4,0.9,0.8C34,79.2,32.5,79.3,32.4,78.3z"/>
		<path class="st1" d="M42.3,75.3c-1.3-0.1-2.5,0.6-3,1.9c-0.4,1.2,0,2.5,1,3.3c0.8,0.6,1.8,0.7,2.7,0.4c1.3-0.4,2.1-1.7,1.9-3
			C44.7,76.5,43.6,75.5,42.3,75.3z M40.6,80.1c-0.8-0.6-1.2-1.8-0.8-2.7c0.4-1,1.4-1.6,2.4-1.5c1.2,0.1,2.1,1.2,2.1,2.4
			C44.4,80.1,42.1,81.2,40.6,80.1z"/>
		<path class="st1" d="M42.7,77.1c-0.7-0.4-1.6-0.2-1.9,0.5c-0.3,0.6-0.1,1.5,0.6,1.8c0.6,0.3,1.3,0.1,1.7-0.3
			C43.5,78.4,43.4,77.5,42.7,77.1z M41.2,78.2c0-1.1,1.7-1.1,1.7,0C42.9,79.3,41.2,79.3,41.2,78.2z"/>
		<path class="st1" d="M51.1,75.3c-1.3-0.1-2.5,0.6-2.9,1.8c-0.4,1.2-0.1,2.5,0.9,3.3c0.8,0.6,1.8,0.7,2.7,0.4
			c1.3-0.4,2.1-1.7,1.9-3C53.5,76.5,52.4,75.5,51.1,75.3z M49.4,80.1c-0.8-0.6-1.2-1.8-0.8-2.7c0.4-1,1.4-1.6,2.4-1.5
			c1.2,0.1,2.1,1.2,2.1,2.4C53.2,80.1,50.9,81.2,49.4,80.1z"/>
		<path class="st1" d="M51.6,77.1c-0.7-0.5-1.6-0.2-2,0.6c-0.3,0.6,0,1.4,0.6,1.7c0.5,0.3,1.2,0.1,1.6-0.3
			C52.3,78.4,52.2,77.5,51.6,77.1z M50,78.3c0-0.5,0.3-0.9,0.8-0.9c0.5,0,0.9,0.4,0.9,0.8C51.7,79.2,50.1,79.3,50,78.3z"/>
		<path class="st1" d="M59.9,75.3c-1.3-0.1-2.5,0.6-2.9,1.8c-0.4,1.2-0.1,2.5,0.9,3.3c0.8,0.6,1.8,0.7,2.7,0.4
			c1.3-0.4,2.1-1.7,1.9-3C62.3,76.5,61.2,75.5,59.9,75.3z M58.2,80.1c-0.8-0.6-1.2-1.8-0.8-2.7c0.4-1,1.4-1.6,2.4-1.5
			C61.1,76,62,77,62,78.2C62,80.1,59.7,81.2,58.2,80.1z"/>
		<path class="st1" d="M60.4,77.1c-0.7-0.5-1.6-0.2-2,0.6c-0.3,0.6,0,1.4,0.6,1.7c0.5,0.3,1.2,0.1,1.6-0.3
			C61.2,78.4,61,77.5,60.4,77.1z M58.8,78.3c0-0.5,0.3-0.9,0.8-0.9c0.5,0,0.9,0.4,0.9,0.8C60.5,79.2,58.9,79.3,58.8,78.3z"/>
		<path class="st1" d="M68.7,75.3c-1.3-0.1-2.5,0.6-2.9,1.8c-0.4,1.2-0.1,2.5,0.9,3.3c0.8,0.6,1.8,0.7,2.7,0.4
			c1.3-0.4,2.1-1.7,1.9-3C71.1,76.5,70,75.5,68.7,75.3z M67,80.1c-0.8-0.6-1.2-1.8-0.8-2.7c0.4-1,1.4-1.6,2.4-1.5
			c1.2,0.1,2.1,1.2,2.1,2.4C70.8,80.1,68.5,81.2,67,80.1z"/>
		<path class="st1" d="M69.2,77.1c-0.7-0.5-1.6-0.2-2,0.6c-0.3,0.6,0,1.4,0.6,1.7c0.5,0.3,1.2,0.1,1.6-0.3
			C70,78.4,69.8,77.5,69.2,77.1z M67.6,78.3c0-0.5,0.3-0.9,0.8-0.9c0.5,0,0.9,0.4,0.9,0.8C69.3,79.2,67.7,79.3,67.6,78.3z"/>
		<path class="st1" d="M77.5,75.3c-1.3-0.1-2.5,0.6-2.9,1.8c-0.4,1.2-0.1,2.5,0.9,3.3c0.8,0.6,1.8,0.7,2.7,0.4
			c1.3-0.4,2.1-1.7,1.9-3C79.9,76.5,78.8,75.5,77.5,75.3z M75.8,80.1c-0.8-0.6-1.2-1.8-0.8-2.7c0.4-1,1.4-1.6,2.4-1.5
			c1.2,0.1,2.1,1.2,2.1,2.4C79.6,80.1,77.3,81.2,75.8,80.1z"/>
		<path class="st1" d="M78,77.1c-0.7-0.5-1.6-0.2-2,0.6c-0.3,0.6,0,1.4,0.6,1.7c0.5,0.3,1.2,0.1,1.6-0.3
			C78.8,78.4,78.6,77.5,78,77.1z M76.4,78.3c0-0.5,0.3-0.9,0.8-0.9c0.5,0,0.9,0.4,0.9,0.8C78.1,79.2,76.5,79.3,76.4,78.3z"/>
		<path class="st1" d="M87,74.1c-1.8-0.4-3.6,0.4-4.5,2c-0.9,1.6-0.7,3.6,0.5,5c1.1,1.2,2.8,1.7,4.4,1.2c1.8-0.6,3.1-2.4,2.9-4.3
			C90.2,76.1,88.8,74.5,87,74.1z M87.4,81.7c-1.4,0.5-2.9,0.1-4-0.9c-1.1-1.1-1.4-2.9-0.7-4.3c0.7-1.4,2.2-2.2,3.8-2
			c1.8,0.2,3.3,1.8,3.3,3.7C89.8,79.7,88.8,81.1,87.4,81.7z"/>
		<path class="st1" d="M86.3,75.3c-1.3-0.1-2.5,0.6-2.9,1.8c-0.4,1.2-0.1,2.5,0.9,3.3c0.8,0.6,1.8,0.7,2.7,0.4
			c1.3-0.4,2.1-1.7,1.9-3C88.7,76.5,87.6,75.5,86.3,75.3z M84.6,80.1c-0.8-0.6-1.2-1.8-0.8-2.7c0.4-1,1.4-1.6,2.4-1.5
			c1.2,0.1,2.1,1.2,2.1,2.4C88.4,80.1,86.2,81.2,84.6,80.1z"/>
		<path class="st1" d="M86.8,77.1c-0.7-0.5-1.6-0.2-2,0.6c-0.3,0.6,0,1.4,0.6,1.7c0.5,0.3,1.2,0.1,1.6-0.3
			C87.6,78.4,87.4,77.5,86.8,77.1z M85.2,78.3c0-0.5,0.3-0.9,0.8-0.9c0.5,0,0.9,0.4,0.9,0.8C86.9,79.2,85.3,79.3,85.2,78.3z"/>
	</g>
</g>
</svg>
